<svg xmlns="http://www.w3.org/2000/svg" width="95" height="23" fill="none"><path fill="url(#a)" d="M24.6 12.63c-.0173.052-.0347.1387-.052.26 0 .104-.0173.1907-.052.26-.0347.0693-.0953.1127-.182.13-.0173.104-.078.1907-.182.26-.104.052-.1733.0867-.208.104h-.078c-.052 0-.1387-.0173-.26-.052-.104-.052-.1907-.0693-.26-.052-.0693.052-.182.078-.338.078-.1213 0-.26-.0173-.416-.052-.156-.052-.2773-.0867-.364-.104-.0867-.052-.234-.078-.442-.078s-.39.0087-.546.026c-.1387.0173-.2513.0347-.338.052 0 .052.0173.1387.052.26.0347.104.052.1993.052.286 0 .0693-.0347.1127-.104.13.052.104.078.2253.078.364v.234c-.0173.0347-.026.0693-.026.104v.104c-.104.104-.0953.1733.026.208-.0347.6413-.156 1.6033-.364 2.886 0 .0173.0173.026.052.026-.052.416-.156.832-.312 1.248-.2253.52-.5807 1.3-1.066 2.34l-1.04.884c-.104-.0693-.234-.1213-.39-.156-.156-.0173-.26-.0347-.312-.052-.1213-.0867-.2513-.208-.39-.364-.1213-.156-.208-.26-.26-.312-.052-.104-.1213-.2167-.208-.338-.0867-.104-.1473-.1993-.182-.286-.0347-.0867-.0347-.182 0-.286-.0693-.1213-.104-.2687-.104-.442s-.0087-.312-.026-.416l-.468-.416c-.052-.0693-.1473-.1647-.286-.286-.1387-.1213-.1993-.234-.182-.338l-.208-.26.416.312c.052.0347.104.0607.156.078.0693.0173.1127.0173.13 0 .0173-.0173-.0173-.0347-.104-.052-.312-.26-.598-.546-.858-.858v-.026c.0173 0 .0433.026.078.078.052.0347.0867.052.104.052-.0347-.052-.0953-.1127-.182-.182-.0693-.0867-.13-.156-.182-.208-.0347-.0693-.0087-.104.078-.104l.13.234c.1907.1213.5633.312 1.118.572.104.0347.2947.104.572.208.2773.104.5373.1733.78.208.0867-.0347.1473-.0953.182-.182.052-.0867.0867-.1473.104-.182.1733-.3813.3033-.806.39-1.274.104-.468.1647-.754.182-.858l.078-.858c.0693-.7627.0953-1.326.078-1.69l-2.392 1.066c-.156.0173-.3727.052-.65.104-.26.052-.4767.078-.65.078-.2427 0-.442-.0347-.598-.104-.0867-.0693-.2167-.1647-.39-.286-.156-.1387-.312-.2253-.468-.26l-.156.624c-.1213.5547-.26 1.0313-.416 1.43-.0173 0-.026.0087-.026.026.0173.0173.026.0347.026.052-.052.0867-.1387.3033-.26.65-.1213.364-.234.6413-.338.832-.104.1733-.26.3207-.468.442-.052 0-.1387.026-.26.078-.104.0347-.208.052-.312.052-.0867 0-.1387-.0347-.156-.104-.26.052-.4073.078-.442.078-.1387 0-.234-.0693-.286-.208l.026-.13c0-.0867-.0173-.1733-.052-.26-.0347-.104-.0607-.182-.078-.234-.0693-.0693-.17333-.156-.312-.26-.13867-.1213-.234-.2167-.286-.286-.03467-.0693 0-.104.104-.104.01733-.0347.026-.0953.026-.182s-.01733-.1907-.052-.312c-.03467-.1213-.06067-.2253-.078-.312-.06933-.1387-.156-.2947-.26-.468-.104-.1733-.19067-.3293-.26-.468-.052-.1387-.078-.286-.078-.442l.494.156-.884-1.274-1.04 1.976c-.06933.0867-.182.2167-.338.39-.13867.1733-.234.3467-.286.52-.22533.26-.598.6153-1.118 1.066l-.364.39c-.208.2253-.39867.4247-.572.598-.17333.156-.21667.1387-.13-.052-.052.0173-.13867.0607-.26.13-.104.0693-.208.0953-.312.078.12133-.0867.19933-.1733.234-.26.052-.104.00867-.13-.13-.078-.104.104-.182.234-.234.39-.03467.156-.06067.2513-.078.286-.06933.2947-.14733.5027-.234.624-.208.104-.364.13-.468.078-.17333.156-.312.2687-.416.338-.104.0693-.22533.104-.364.104-.01733-.0173-.052-.0693-.104-.156-.03467-.0693-.03467-.1387 0-.208-.17333-.2253-.43333-.468-.78-.728h-.052c-.08667 0-.156-.0433-.208-.13-.052-.0693-.09533-.1213-.13-.156-.052-.052-.14733-.1127-.286001-.182-.121333-.0693-.216667-.13-.286-.182-.069333-.0693-.104-.156-.104-.26l.026-.13c0-.0867-.026-.1993-.078-.338-.052-.156-.078-.2687-.078-.338.034667-.052.060667-.1473.078-.286.034667-.156.078-.2687.13-.338.052-.104.104-.2427.156-.416.069333-.1733.164667-.3033.286-.39.052001-.0347.147331-.078.286001-.13.13867-.052.234-.104.286-.156.06933-.0693.08667-.1387.052-.208v-.156c0-.0867.01733-.1647.052-.234l.026-1.508c.03467-.208.052-.52.052-.936-.06933-1.4213-.156-2.4873-.26-3.198-.104-.156-.182-.32933-.234-.52-.03467-.06933-.104-.16467-.208-.286-.104001-.13867-.147334-.25133-.130001-.338-.364-.29467-.563333-.84933-.598-1.664l.026-.026c0-.06933.026-.16467.078-.286.069333-.13867.104-.24267.104-.312.069333-.08667.156-.13867.26-.156.121333-.01733.208-.03467.260001-.052l.754-1.612c.104-.52.156-.91.156-1.17-.208-.26-.32067-.39867-.338-.416-.19067-.27733-.364-.48533-.52-.624-.156001-.13867-.355334-.21667-.598001-.234 0-.08667-.017333-.182-.052-.286.156-.06933.450667-.19067.884001-.364.43333-.17333.832-.286 1.196-.338.052.017333.13.06067.234.13.104.06933.19067.078.26.026.01733 0 .08667.01733.208.052.12133.03467.234.026.338-.026.22533.052.47667.13867.754.26.27733.12133.47667.208.598.26.104.052.286.14733.546.286.26.13867.47667.29467.65.468l.208.208c.08667.08667.13867.16467.156.234.01733.052-.01733.08667-.104.104l.182.442c.03467.13867.052.25133.052.338 0 .13867-.06933.17333-.208.104-.08667.03467-.14733.09533-.182.182-.03467.06933-.03467.13867 0 .208-.156.32933-.37267.50267-.65.52-.06933.08667-.17333.13-.312.13-.06933 0-.17333-.00867-.312-.026-.12133-.01733-.21667-.01733-.286 0-.03467-.01733-.104-.026-.208-.026-.08667 0-.156.00867-.208.026V4.83l-.026.026-.65-.208c-.13867-.06933-.286-.182-.442-.338-.156-.156-.286-.27733-.39-.364-.12133.06933-.24267.17333-.364.312-.13867.19067-.27733.40733-.416.65-.34667.50267-.56333.81467-.65.936-.104.208-.17333.364-.208.468.03467.208.182.40733.442.598.052.01733.09533.052.13.104.052.03467.09533.06067.13.078.052.01733.08667 0 .104-.052.53733.22533.97067.38133 1.3.468.08667.06933.19933.13867.338.208.156.06933.286.14733.39.234.12133.06933.19933.16467.234.286 0 .03467.01733.09533.052.182.052.06933.03467.11267-.052.13-.052.052-.08667.13-.104.234v.182c0 .06933-.00867.156-.026.26 0 .08667.00867.156.026.208-.24267.19067-.53733.34667-.884.468H3.15c-.052 0-.11267.026-.182.078-.052.0347-.09533.0607-.13.078-.03467.0173-.06933-.0087-.104-.078-.052.0867-.156.1907-.312.312-.156.104-.26.208-.312.312 0 .052-.03467.1473-.104.286-.052.1387-.078.2513-.078.338 0 .0693.03467.1213.104.156-.08667.3293-.13.7107-.13 1.144l.026.988c-.01733 0-.026.0087-.026.026.01733.0173.026.0347.026.052-.01733.312 0 .6587.052 1.04.06933.3813.11267.6413.13.78h.026l.416-.598c.24267-.364.47667-.7627.702-1.196.24267-.4507.39-.7367.442-.858.45067-1.04.76267-1.8287.936-2.366.03467-.1213.078-.2947.13-.52.052-.24267.09533-.40733.13-.494.052-.104.08667-.078.104.078.01733 0 .026-.00867.026-.026.01733-.01733.03467-.026.052-.026l-.286 1.326c-.01733.052-.06067.1387-.13.26-.06933.1213-.12133.2253-.156.312-.01733.0693 0 .1387.052.208l-.13.624c-.03467.2427-.052.3813-.052.416l.026.026c-.01733.104-.04333.2253-.078.364-.03467.1213-.06067.2167-.078.286v.182c0 .208-.00867.364-.026.468.01733.0347.026.078.026.13 0 .0693-.01733.156-.052.26-.06933.208-.104.364-.104.468h.026c0 .0867-.01733.1993-.052.338-.01733.1387-.00867.2513.026.338l-.026.13c0 .1733.026.3207.078.442.06933.1213.11267.0867.13-.104.052-.0347.09533-.078.13-.13.052-.052.06067-.104.026-.156.052-.104.09533-.234.13-.39.03467-.156.078-.286.13-.39.06933-.104.156-.1733.26-.208-.01733.0347-.052.104-.104.208-.03467.0867-.01733.156.052.208l-.156.364c-.01733.052-.04333.1387-.078.26-.01733.1213-.00867.2253.026.312-.01733.1213-.06067.2947-.13.52-.052.208-.06933.3813-.052.52-.17333.4853-.286.858-.338 1.118l.468-.546c.052-.0693.14733-.208.286-.416.156-.208.25133-.4247.286-.65.364-.572.76267-1.4647 1.196-2.678.052-.1387.11267-.312.182-.52.06933-.208.16467-.4507.286-.728.29467-.8493.58067-1.95.858-3.302l.234-.962c-.104.052-.34667.16467-.728.338s-.754.27733-1.118.312c-.26-.156-.47667-.32067-.65-.494-.17333-.17333-.39-.42467-.65-.754-.01733-.06933-.052-.17333-.104-.312-.052-.156-.078-.27733-.078-.364 0-.17333.06067-.29467.182-.364.06933-.01733.16467-.026.286-.026.104 0 .19067-.00867.26-.026.03467.01733.078.06067.13.13.052.052.104.06933.156.052l-.286.312c.26-.01733.52867-.078.806-.182.29467-.104.48533-.17333.572-.208.06933-.03467.16467-.06933.286-.104.13867-.052.234-.09533.286-.13.052-.052.052-.12133 0-.208-.052 0-.13867.026-.26.078-.104.052-.14733.03467-.13-.052.312-.104.572-.24267.78-.416.19067-.17333.38133-.416.572-.728.13867-.39867.234-.806.286-1.222.06933-.416.12133-.82333.156-1.222.03467-.39867.06067-.676.078-.832-.052-.104-.16467-.22533-.338-.364-.052-.06933-.13-.14733-.234-.234-.08667-.08667-.156-.16467-.208-.234C7.96.973332 7.94267.886665 7.96.799999c.104-.121333.24267-.199333.416-.234.17333-.052.27733-.086666.312-.104001C8.77467.444665 8.87867.409999 9 .358c.13867-.052001.26-.069334.364-.052001 0 .017333.00867.026.026.026.03467-.017334.06067-.026.078-.026.08667.017333.19933.043333.338.078.13867.034667.26.034667.364 0 .052.017334.1387.026.26.026l.39-.026c.26 0 .4073.095334.442.286.2427-.017333.442.095334.598.338001.156.22533.2513.47667.286.754.0693.03467.1127.104.13.208.0173.08667.0347.14733.052.182v.234c0 .12133-.0173.32067-.052.598-.0347.08667-.0693.22533-.104.416-.0173.17333-.0433.32067-.078.442-.0347.104-.104.182-.208.234.0347.06933.0867.11267.156.13.0867.01733.1387.026.156.026l.286-.026c.2253 0 .4247.04333.598.13l.286-.026c.1213 0 .2167.026.286.078.0347-.312.1387-.58933.312-.832.1733-.24267.3553-.45933.546-.65.1907-.19067.3207-.32067.39-.39.052-.052.182-.208.39-.468.2253-.26.416-.51133.572-.754.052-.08667.1213-.19067.208-.312.104-.121334.1733-.225335.208-.312001.0347-.104.0173-.208-.052-.311999.0173-.017334.0173-.060668 0-.130002-.0173-.086666-.0087-.1473326.026-.1819988.0347-.0173331.0867-.0259997.156-.0259997.0867 0 .182.0173331.286.0519993.1213.0173331.2253.0346672.312.0520012.156.121333.312.207999.468.259999.0867.138667.1733.303334.26.494l-.026.026.494.832001c0 .104.052.25133.156.442.1213.19067.156.32933.104.416h.026c.052 0 .0953-.01733.13-.052.052-.052.0867-.08667.104-.104.052-.06933.1213-.16467.208-.286.104-.13867.2167-.21667.338-.234.052-.052.1213-.14733.208-.286.104-.156.1907-.26.26-.312.1387-.08667.2773-.13.416-.13.1213 0 .3033.052.546.156.052.01733.1387.03467.26.052.1387.01733.2427.06067.312.13l.104-.052c.0347 0 .0867.01733.156.052.0693.01733.1213.03467.156.052.104.01733.26.026.468.026.208 0 .3727.04333.494.13.1733.01733.286.13.338.338.104.17333.1993.286.286.338.1733.01733.26.12133.26.312 0 .104-.0347.208-.104.312-.052.104-.1213.19067-.208.26-.1733.104-.286.19933-.338.286-.0867.052-.1733.11267-.26.182-.0693.06933-.1473.13-.234.182h-.338c-.1387 0-.2513-.01733-.338-.052l-1.3.416c-.26.08667-.6327.234-1.118.442-.0867.03467-.2773.11267-.572.234-.2947.12133-.572.22533-.832.312-.26.06933-.5027.11267-.728.13-.208.104-.364.19067-.468.26-.0173 0-.0087-.03467.026-.104.0347-.08667.026-.12133-.026-.104-.0693.03467-.1993.08667-.39.156-.1907.052-.3207.12133-.39.208-.0693.052-.1387.078-.208.078s-.1473-.00867-.234-.026c-.0693-.03467-.1387-.06067-.208-.078-.104.052-.234.17333-.39.364l-.494.234c-.1907.104-.3987.19933-.624.286-.2253.06933-.4333.104-.624.104-.1213 0-.208-.00867-.26-.026-.0173-.03467-.052-.04333-.104-.026-.0347.01733-.052.01733-.052 0-.104.01733-.26.052-.468.104-.1907.03467-.3553.052-.494.052-.104 0-.182-.00867-.234-.026-.0867.03467-.2513.08667-.494.156-.2253.06933-.416.16467-.572.286v.052c0 .052.0173.11267.052.182.052.06933.0867.13.104.182-.1213.29467-.2167.63267-.286 1.014-.052.364-.0867.61533-.104.754l.728-.182c.1907 0 .416.026.676.078.26.052.4767.08667.65.104.1387.03467.2773.08667.416.156s.2773.12133.416.156c.208.17333.3727.2773.494.312.052.0347.0693.0867.052.156-.0173.0693-.026.1213-.026.156-.0173.052-.0347.104-.052.156-.0173.052-.026.1127-.026.182 0 .0867.0347.156.104.208l-.026 1.274c-.0173.1733-.0433.364-.078.572-.0347.1907-.052.338-.052.442 0 .2947.1733.4767.52.546.2427-.0693.5027-.1647.78-.286.2773-.1213.468-.1993.572-.234l.572-.26c.78-.364 1.43-.6327 1.95-.806.052-.0173.1213-.0347.208-.052.104-.0347.1733-.0693.208-.104.0347-.0347.0433-.0953.026-.182-.0347-.104-.104-.1993-.208-.286l-.208-.208c-.0173-.0347-.052-.078-.104-.13-.0347-.052-.0347-.104 0-.156l-.234-.702.65-1.482c.0347-.12133.0867-.26.156-.416.0693-.156.1127-.27733.13-.364.0173-.104-.0087-.17333-.078-.208-.78 1.092-1.534 1.85467-2.262 2.288-.052.0347-.2253.1387-.52.312-.2773.156-.572.2687-.884.338h-.026c-.052 0-.104-.026-.156-.078l-.13-.13c-.1387-.156-.2773-.4247-.416-.806-.1213-.156-.208-.32067-.26-.494-.052-.17333-.0867-.35533-.104-.546-.0173-.19067-.0347-.32933-.052-.416.0347-.052.0693-.12133.104-.208.052-.08667.0953-.14733.13-.182.052-.052.1213-.06933.208-.052l.052-.026c.052 0 .104.01733.156.052.052.01733.0953.03467.13.052.052.01733.078.06933.078.156 0 .052-.0087.11267-.026.182-.0173.052-.026.104-.026.156l.312-.052c.2773-.06933.676-.24267 1.196-.52l.572-.312c.2427-.156.5113-.30333.806-.442.364-.17333.65-.32933.858-.468.2253-.156.3987-.34667.52-.572.0693-.13867.182-.26867.338-.39.1733-.13867.3033-.24267.39-.312.052-.03467.1473-.052.286-.052.0693 0 .1647.01733.286.052.1213.01733.2253.03467.312.052.104.052.2773.08667.52.104.2427.01733.4247.06933.546.156.104.03467.26.06933.468.104.208.01733.364.052.468.104.1213.03467.208.12133.26.26-.0347.13867-.026.30333.026.494.0693.19067.0953.34667.078.468l-.416.832c-.0867.22533-.234.546-.442.962-.104.17333-.312.47667-.624.91l-.39.416c-.416.416-.6933.754-.832 1.014.2947-.0867.7453-.312 1.352-.676.1907-.052.39-.078.598-.078.4853 0 .9533.1387 1.404.416.0693.0693.1907.1473.364.234.1733.0693.2947.1387.364.208.0867.0693.1127.1733.078.312.208.208.3467.4247.416.65l.052.208ZM6.764 6.416c0-.01733.00867-.026.026-.026.01733 0 .026.00867.026.026h-.052ZM4.996 9.198c.01733-.08667.026-.12133.026-.104.01733 0 .01733.03467 0 .104h-.026Zm-2.054 1.066c-.01733.052-.04333.052-.078 0-.03467-.0693-.01733-.0867.052-.052l.026.052Zm7.8 1.664c0-.0693-.0087-.1993-.026-.39 0-.208-.0347-.3727-.104-.494-.104-.052-.234-.0867-.39-.104-.1387-.0347-.25133-.0693-.338-.104-.06933.104-.156.2773-.26.52-.052.156-.13867.4073-.26.754-.12133.3293-.25133.6153-.39.858-.01733.104-.078.2427-.182.416-.104.156-.16467.2773-.182.364.13867.104.26867.2427.39.416.03467.0347.11267.13.234.286.13867.1387.24267.208.312.208s.104-.078.104-.234c-.06933-.0693-.19933-.1733-.39-.312-.17333-.1387-.26867-.286-.286-.442.06933.0693.19067.1907.364.364.17333.1733.338.312.494.416.1733.0867.3553.1387.546.156.208-1.04.3293-1.8287.364-2.366v-.312Zm9.074-.546c.0173-.0173.0433-.052.078-.104V11.2c0-.0867-.0347-.13-.104-.13-.052 0-.0867.0347-.104.104-.0173.052 0 .1127.052.182l.078.026Zm-15.21 1.066c.052-.0173.078.0173.078.104 0 .0693-.026.0953-.078.078v-.182Zm4.16 2.236c0 .052-.01733.0693-.052.052-.01733-.0347-.03467-.0607-.052-.078-.01733-.0347-.00867-.0433.026-.026l.078.052Zm.156.182c0 .052-.01733.0693-.052.052-.01733-.0173-.03467-.0347-.052-.052 0-.0347.026-.0433.078-.026l.026.026Zm5.798 2.678c-.0347.0173-.052.0087-.052-.026 0-.052.0173-.0607.052-.026v.052Zm-2.574.988c-.0173.052-.0607.0867-.13.104-.0693.0173-.0953 0-.078-.052l.208-.052Zm4.966 3.042c-.0693.0347-.0867.0693-.052.104.0347.052.078.0693.13.052.052-.0173.0693-.0693.052-.156h-.13Zm.832 1.222-.052.052c-.0347 0-.0953.0087-.182.026-.0693.0347-.0953.026-.078-.026l.286-.052h.026ZM43.112.669999l.364.234c.0693.017333.1387.052.208.104001.0867.03467.156.052.208.052.0693 0 .13-.026.182-.078.1213.03467.234.06067.338.078.1213.01733.2427.04333.364.078.364-.06933.7367.16467 1.118.702.0867.156.13.338.13.546 0 .104-.0173.27733-.052.52-.0693.12133-.156.21667-.26.286-.104.06933-.2513.13867-.442.208-.1907.06933-.3293.13-.416.182-.104-.01733-.2253-.052-.364-.104-.1213-.052-.208-.08667-.26-.104-.052-.03467-.1213-.06933-.208-.104-.0693-.052-.156-.09533-.26-.13l-.286.026c-.1387 0-.2253-.052-.26-.156-.052-.06933-.1213-.104-.208-.104l-.156.026c-.0693 0-.1387-.04333-.208-.13l-.494.26c-.0173-.03467-.026-.078-.026-.13 0-.08667.026-.19067.078-.312.052-.12133.0867-.21667.104-.286 0-.19067-.052-.364-.156-.52-.0347-.052-.1213-.13-.26-.234-.1387-.12133-.234-.22533-.286-.312-.052-.08667-.0433-.182.026-.286.3987 0 .676-.095334.832-.286001.0693-.034667.156-.052.26-.052.104-.017333.182-.025999.234-.025999l.156.051999Zm-5.408.208L38.068.982c.0693-.034668.1213-.052001.156-.052001.0173 0 .13.026.338.078001.52.12133 1.0227.34667 1.508.676.0173.03467.0693.104.156.208s.0867.14733 0 .13c.0173.03467.0433.08667.078.156s.052.13.052.182c.0173.03467 0 .06933-.052.104l.104.286c.0173.052.026.13.026.234 0 .12133-.0173.26867-.052.442-.0347.156-.0607.26867-.078.338-.0867.34667-.13.572-.13.676-.104.38133-.182.73667-.234 1.066h-.026c.0347.19067.052.416.052.676v.65l.598-.312-.078-.26c-.0173-.01733-.0607-.06067-.13-.13s-.0867-.14733-.052-.234c.0693-.052.1733-.078.312-.078.156-.01733.2687-.04333.338-.078.0693-.01733.1907-.04333.364-.078.1907-.03467.3293-.104.416-.208.0173 0 .0607-.00867.13-.026.0867-.01733.1473-.052.182-.104l.26.026c.052 0 .1647-.01733.338-.052.104.03467.2513.06933.442.104.208.03467.364.09533.468.182.0867.01733.1907.04333.312.078.1213.01733.2253.026.312.026s.182-.026.286-.078c.0347.08667.156.13867.364.156.208.01733.3293.078.364.182.0173.17333.0867.364.208.572h-.026c-.1213 0-.234.04333-.338.13-.0867.08667-.13.17333-.13.26 0 .06933.052.14733.156.234-.0867.104-.1733.234-.26.39-.0693.156-.156.27733-.26.364-.0867.08667-.208.13-.364.13-.364.03467-.7627.13867-1.196.312-.4333.17333-.7193.286-.858.338-.572.24267-1.2307.60667-1.976 1.092l.156 1.014c.0173.0867.0607.2253.13.416.0867.1907.0953.312.026.364v.026c.0867.1213.1647.3553.234.702l.52-.78c.052-.1213.156-.2773.312-.468.0173-.0347.078-.13.182-.286.1213-.156.182-.2773.182-.364s-.0607-.1387-.182-.156c-.0173.0173-.0433.026-.078.026s-.052-.026-.052-.078c0-.0693.0347-.13.104-.182 0-.104-.0087-.19933-.026-.286-.0173-.104-.026-.208-.026-.312 0-.19067.078-.32067.234-.39.1387-.03467.234-.052.286-.052.104 0 .1993.026.286.078.1213.08667.3033.22533.546.416.2427.19067.4853.32067.728.39.1387-.01733.26.026.364.13.104.0867.1993.182.286.286.0867.0867.1387.1473.156.182.104.26.13.4767.078.65v.13c0 .104-.0173.2253-.052.364-.1907.4333-.416.832-.676 1.196-.26.364-.6327.8407-1.118 1.43-.2427.2773-.4853.572-.728.884l.156.312c.0867.156.1993.3293.338.52.156.1733.2773.312.364.416l.65.65c.2427.208.4767.3813.702.52l.208-.598c.1387-.6933.2513-1.4733.338-2.34 0-.1213.0173-.3033.052-.546.0693-.78.0867-1.3607.052-1.742-.0173-.0693-.052-.1647-.104-.286-.052-.1213-.0347-.1993.052-.234.208.468.39.988.546 1.56.1733.5547.2773.9013.312 1.04.0693.208.1387.442.208.702.0693.2427.1473.494.234.754l-.026.026.468 1.3c0-.052.0173-.078.052-.078.0173.0173.0607.078.13.182.0693.0867.1127.0693.13-.052.1733.52.3553.9013.546 1.144.052.1213.078.312.078.572 0 .1213-.0087.2773-.026.468-.0173.1907-.0173.3467 0 .468-.0173.4853-.208.936-.572 1.352-.3467.208-.5547.3467-.624.416-.104.052-.234.0867-.39.104-.1387.0347-.234.0607-.286.078v-.026c-.3813-.0173-.8407-.156-1.378-.416-.2773-.1213-.4507-.1907-.52-.208-.1907-.1213-.4247-.3553-.702-.702-1.04-.8147-1.924-1.716-2.652-2.704-.0347-.052-.0867-.1387-.156-.26-.0693-.1213-.1387-.208-.208-.26-.052-.0693-.1127-.078-.182-.026-.052.0173-.1127.052-.182.104-.0693.0347-.13.0607-.182.078-.052 0-.0607-.0347-.026-.104-.156.0693-.39.1387-.702.208-.104.052-.182.078-.234.078-.0347 0-.0953-.0173-.182-.052-.0867-.052-.1907-.0607-.312-.026-.1213.052-.286.1213-.494.208-.1907.0867-.3553.1473-.494.182v-.026c-.0347.0173-.13.078-.286.182-.156.0867-.312.1387-.468.156-.104-.0693-.156-.1473-.156-.234v-.078c0-.104-.0347-.1907-.104-.26v-.026c0-.052.0347-.0953.104-.13.0693-.052.1473-.0953.234-.13.1213-.0867.26-.1907.416-.312.156-.1387.2773-.2427.364-.312l.442-.39c.1387-.156.286-.3033.442-.442.416-.4507.7107-.806.884-1.066l-.182-.598-.182-.728c-.1733-.7627-.3813-1.5513-.624-2.366l-1.43.832c-.1387.052-.3467.1993-.624.442-.3467.2773-.598.416-.754.416-.1213 0-.2253-.0347-.312-.104h-.572c-.2427 0-.4333.0087-.572.026-.1213-.0867-.2513-.1993-.39-.338-.1387-.156-.2427-.2773-.312-.364-.052-.156-.078-.3293-.078-.52l.026-.624c-.1733.3987-.5287 1.118-1.066 2.158-.0347.0693-.0867.1733-.156.312-.0693.1213-.1473.2167-.234.286.3293.2947.7107.5807 1.144.858.1733.052.338.156.494.312.1733.156.3033.2687.39.338.0173.0347.078.1213.182.26.104.1213.156.2513.156.39.104.208.1907.364.26.468.0347.0347.0867.0953.156.182.0693.0693.1127.1387.13.208.156.156.2253.286.208.39l-.312-.078c-.0347.104-.052.2253-.052.364.0173.1387.026.234.026.286-.156.052-.338.1993-.546.442-.1387.0867-.2687.2253-.39.416l-.39-.13c-.0693.0173-.1733.052-.312.104-.1213.052-.234.0693-.338.052v-.026l-.104.026c-.0867 0-.182-.0433-.286-.13-.104-.0867-.1907-.1473-.26-.182-.2947-.2427-.5893-.52-.884-.832-.2773-.312-.442-.5027-.494-.572l-.468-.52c-.1733.3293-.5113.78-1.014 1.352l-.39.416c-.1733.0693-.364.1993-.572.39-.1907.1733-.3553.312-.494.416-.0347 0-.0607-.0173-.078-.052-.0173-.052-.0433-.0953-.078-.13-.0867.0867-.1647.1213-.234.104-.0693-.0347-.0607-.0953.026-.182h-.286c-.1213 0-.2167.0173-.286.052l-.312.026c-.1733 0-.2773-.052-.312-.156h-.182c-.1213 0-.1993-.0347-.234-.104-.1213-.0867-.2427-.1907-.364-.312-.0867-.1733-.13-.3467-.13-.52 0-.1213.0087-.2167.026-.286-.0173-.104-.0693-.2513-.156-.442-.0693-.208-.078-.3813-.026-.52h.026c0 .156.052.2947.156.416.1213.1213.286.2427.494.364.9187-.8493 1.6207-1.664 2.106-2.444.0173-.052.026-.1127.026-.182.0173-.0867.0347-.1473.052-.182.0347-.052.078-.0607.13-.026.0173-.0347.0693-.1213.156-.26s.1473-.2687.182-.39c-.364-.4507-.728-.962-1.092-1.534-.104-.0867-.1993-.1473-.286-.182-.0867-.052-.1733-.0607-.26-.026l-.13-.286c.0693-.0693.1647-.104.286-.104.0867 0 .1993.0173.338.052.208.0693.52.1907.936.364.0693.0347.1907.1127.364.234.1733.104.338.1647.494.182l.26-.598c.676-1.5773 1.1613-2.86867 1.456-3.874l-2.132 1.768c-.1213.104-.2513.24267-.39.416-.1387.156-.2687.286-.39.39-.1213.104-.26.1733-.416.208-.0867.0693-.2167.1213-.39.156-.156.0347-.2773.0433-.364.026s-.0607-.0433.078-.078v-.026c-.312-.104-.546-.156-.702-.156-.104-.0867-.1907-.2687-.26-.546-.156-.24267-.2513-.45067-.286-.624-.156-.208-.234-.43333-.234-.676 0-.24267.078-.45933.234-.65.156-.19067.364-.30333.624-.338.156-.104.2947-.234.416-.39.1387-.17333.2253-.286.26-.338.0693-.06933.1907-.22533.364-.468.1213-.208.234-.34667.338-.416v.052c0 .08667.0347.19933.104.338.0693.13867.104.24267.104.312-.0173.01733-.026.052-.026.104.0173 0 .026.00867.026.026l-.052.208c-.0173.01733-.052.06933-.104.156s-.0693.17333-.052.26c.0867-.06933.494-.30333 1.222-.702.572-.312 1.014-.572 1.326-.78.312-.208.5807-.45933.806-.754.0867-.08667.1733-.182.26-.286.104-.12133.1907-.208.26-.26.0867-.06933.1907-.104.312-.104V4.7c.1387-.03467.234-.052.286-.052.0867 0 .1993.01733.338.052h.078c.0867 0 .1907-.01733.312-.052.1213-.03467.2253-.04333.312-.026.052.01733.13.078.234.182.104.104.208.13867.312.104.0867.052.2253.11267.416.182.1907.06933.3293.13867.416.208.312.312.5027.53733.572.676.0173.052.026.13.026.234 0 .13867-.0087.26867-.026.39-.0173.104-.0347.19933-.052.286-.0347.104-.0867.29467-.156.572-.052.26-.1127.48533-.182.676-.0173.06933-.0867.16467-.208.286-.104.12133-.1733.21667-.208.286-.0173.06933.0173.13867.104.208.156.29467.2773.572.364.832 0 .052-.0087.12133-.026.208 0 .0693.0087.156.026.26.5373-.208 1.2913-.624 2.262-1.248.364-.26.728-.494 1.092-.702v-.156c.0173-.06933.0173-.14733 0-.234h.026c-.0173-.26-.0607-.65-.13-1.17-.1387-1.31733-.208-2.314-.208-2.99v-.65c.0173-.32933-.0173-.61533-.104-.858l-.312.052c-.2253-.06933-.3727-.14733-.442-.234.0693-.312.208-.58067.416-.806.2253-.225334.494-.346667.806-.364l.104.025999ZM30.372 7.638v-.156c-.1387.08667-.2167.17333-.234.26 0 .08667.0693.078.208-.026l.026-.078Zm2.99 2.184c.0173-.052.0173-.078 0-.078 0 0-.0087.026-.026.078h.026Zm13.312 5.226c-.0693.0173-.0953-.0173-.078-.104.0173-.0867.052-.1213.104-.104v.026l-.026.182Zm-20.67 4.472c-.0173-.052-.0087-.078.026-.078.052 0 .0693.026.052.078h-.078Zm45.656-.91c.0173-.052.0347-.13.052-.234.0173-.1213.0433-.2167.078-.286.052-.0867.1127-.13.182-.13l-.208.962c-.26.7107-.6847 1.3-1.274 1.768-.572.4853-1.2307.7453-1.976.78l-.026-.026-1.144.052-.052-.026-.598.026c-.1387 0-.2427-.0087-.312-.026v.026c-.468-.0693-.9533-.1907-1.456-.364-.5027-.1733-.806-.2773-.91-.312-.8147-.3813-1.4907-.8927-2.028-1.534-.1733-.2947-.312-.6153-.416-.962-.052-.312-.078-.624-.078-.936.0173-.156.0433-.338.078-.546.0347-.2253.052-.3987.052-.52 0-.156-.0173-.26-.052-.312l-.546.624c-.4333.52-.8493.9793-1.248 1.378-.0347.0173-.0867.0693-.156.156-.052.0867-.1127.0953-.182.026-.1907.1213-.39.3033-.598.546-.208.2427-.3727.4247-.494.546-.0693.052-.1907.156-.364.312-.156.156-.312.2513-.468.286-.0693.0347-.156.0953-.26.182-.0867.0867-.1733.1387-.26.156-.0693.0347-.1387.0173-.208-.052-.104.052-.2253.078-.364.078-.1907 0-.338-.0867-.442-.26l.416-.26c.6933-.6587 1.2827-1.2913 1.768-1.898.728-.9707 1.2567-1.716 1.586-2.236.1213-.2773.4767-.962 1.066-2.054l.026-.13-.078.156c-.052.104-.1213.182-.208.234-.0173-.0173-.0693-.0607-.156-.13s-.1647-.104-.234-.104-.13.0347-.182.104c-.1733-.208-.2947-.2513-.364-.13-.2253-.0347-.4853-.182-.78-.442-.0347-.0693-.1127-.1473-.234-.234-.1213-.0867-.1993-.1647-.234-.234v-.156c0-.1387-.0433-.2427-.13-.312l.104-.546c.0173-.2947.026-.7453.026-1.352.0173-.208.026-.51133.026-.91-.1213.06933-.2253.182-.312.338-.0693.03467-.1127.104-.13.208-.0173.104-.026.2253-.026.364 0 .1213-.0433.1387-.13.052-.0173 0-.0433.0087-.078.026-.0347 0-.0693-.0087-.104-.026-.052.052-.1127.078-.182.078s-.156-.0173-.26-.052c-.0867-.0347-.156-.0433-.208-.026-.1387-.1387-.3207-.208-.546-.208-.1387 0-.2947.026-.468.078-.156.052-.26.0867-.312.104-.0693.0173-.1473.0433-.234.078-.0867.0347-.182.0607-.286.078-.0867.0347-.208.0867-.364.156s-.286.0953-.39.078c-.0867 0-.156.0433-.208.13-.0347.0867-.0607.1473-.078.182-.0173.0693-.026.1647-.026.286 0 .2253.078.39.234.494 1.0747.7107 1.898 1.3173 2.47 1.82.2427.1733.4333.286.572.338.052.0867.1473.182.286.286l-.13.13c-.052.052-.0867.104-.104.156.0693.104.1733.2427.312.416.156.1733.234.312.234.416 0 .0867-.052.1647-.156.234v.026c0 .0867.026.1733.078.26.0693.0693.1213.13.156.182-.1387.5373-.3467.8927-.624 1.066-.0347.0347-.078.104-.13.208-.0347.104-.0953.1387-.182.104l-.13.13c-.0693.0693-.1213.1387-.156.208-.0347.0693-.0433.1387-.026.208-.052-.0173-.1213-.0433-.208-.078-.0693-.052-.13-.104-.182-.156-.2253-.052-.416-.1647-.572-.338-.156-.1907-.312-.4333-.468-.728-.2427-.312-.442-.5287-.598-.65-.0173-.0867-.0433-.182-.078-.286-.0347-.1213-.0607-.2513-.078-.39-.0693-.0867-.1473-.1907-.234-.312-.0693-.1387-.1213-.2427-.156-.312-.2253-.4507-.4507-.7627-.676-.936l-.156.598c-.0347.1387-.0867.312-.156.52-.052.208-.13.4507-.234.728-.0173.0347-.0433.0867-.078.156-.0173.0693-.0087.13.026.182l-.234.65c-.0173.0347-.052.0867-.104.156-.0347.052-.0347.104 0 .156-.156.364-.4073.91-.754 1.638-.0347.0347-.078.0953-.13.182-.0347.0867-.0607.1213-.078.104v.026c0 .0347-.026.078-.078.13-.052.0347-.0867.0693-.104.104v.026h-.026c-.0347 0-.052-.0087-.052-.026s.026-.052.078-.104c.0693-.0693.13-.1213.182-.156v-.052l.624-1.17c.0173-.0347.0347-.078.052-.13.0347-.0693.0347-.13 0-.182.0173-.052.052-.1127.104-.182.0693-.0867.0693-.1213 0-.104l-.624 1.17c-.0693.104-.1647.2167-.286.338-.1213.1213-.2167.234-.286.338-.052.0867-.0607.1733-.026.26l-.234.312c-.3813.3813-.754.6933-1.118.936l-.182-.572c-.0173-.0347-.052-.0953-.104-.182-.052-.0693-.1127-.1127-.182-.13.0173.0693.0347.1647.052.286.0347.1213.052.2167.052.286 0 .104-.0433.1907-.13.26H49.3c-.0693 0-.1213-.026-.156-.078-.0347-.052-.052-.1127-.052-.182 0-.0347.0087-.078.026-.13.0347-.0347.078-.052.13-.052l-.182-.676h.026l-.208-.416c-.0693-.2773-.104-.598-.104-.962 0-.416.0607-.91.182-1.482.0347-.052.0693-.1213.104-.208.052-.0867.0867-.13.104-.13.0347-.0173.0607.0173.078.104.0347.156.1127.338.234.546.1213.1907.2167.286.286.286.0693 0 .104-.0693.104-.208.0173-.0347.0433-.0867.078-.156.052-.0867.0607-.1647.026-.234.364-1.0747.728-2.4267 1.092-4.056-.0867 0-.1733.0433-.26.13l-.156.156c-.2427.156-.6413.3207-1.196.494h-.052c-.1733 0-.3987-.0867-.676-.26-.052-.052-.1213-.1127-.208-.182-.0693-.0867-.13-.156-.182-.208-.0347-.0693-.0347-.1387 0-.208l-.286-.442c-.0347-.208-.052-.3727-.052-.494 0-.1733.052-.3033.156-.39.104-.052.2947-.1213.572-.208.2947-.104.5027-.234.624-.39-.052.2427-.13.468-.234.676l.026.026c.572-.26 1.1787-.572 1.82-.936l.676-.364.104-1.326V8.21c0-.06933-.0087-.11267-.026-.13-.0173-.03467-.052-.04333-.104-.026-.1213.052-.2513.13867-.39.26-.1387.104-.2513.182-.338.234l.156-.234c-.156 0-.338-.04333-.546-.13-.0693-.03467-.182-.09533-.338-.182-.156-.08667-.286-.17333-.39-.26-.104-.104-.1647-.21667-.182-.338-.052-.052-.13-.16467-.234-.338-.0867-.19067-.182-.312-.286-.364-.052-.06933-.0867-.14733-.104-.234V6.26c.0173-.17333.0607-.32933.13-.468.0867-.156.208-.32933.364-.52.1733-.12133.2947-.19067.364-.208.052.19067.1127.494.182.91h.026c.416-.156.8493-.35533 1.3-.598s.7367-.39.858-.442l.208-2.73c-.0867.01733-.2253.052-.416.104-.1733.03467-.312.052-.416.052-.1213 0-.2167-.026-.286-.078.0173-.312.208-.66733.572-1.066.0347-.01733.1213-.06933.26-.156.1387-.104001.2773-.156001.416-.156001h.442c.052 0 .1213.017334.208.052001.104.034666.1907.034666.26 0 .052.017333.1473.052.286.104.156.03467.2947.08667.416.156.0867.052.26.17333.52.364.26.19067.468.40733.624.65l.026.208c0 .08667-.026.17333-.078.26-.0693.24267-.104.43333-.104.572.0173-.01733.0607-.052.13-.104.0693-.06933.1387-.09533.208-.078.0347.01733.104.06933.208.156.1213.08667.2513.14733.39.182.1213.03467.2687.06067.442.078.1907.01733.3467.052.468.104.1387.03467.2513.104.338.208 0 .08667.0173.19933.052.338.0347.12133.0347.22533 0 .312-.0693.03467-.1733.078-.312.13-.1213.03467-.208.08667-.26.156.0173.08667.0433.19067.078.312.052.104.078.19067.078.26 0 .104-.0433.182-.13.234-.1213.03467-.2687.08667-.442.156s-.338.08667-.494.052c-.104.052-.286.13-.546.234-.26.104-.4767.21667-.65.338-.0347.052-.0693.13-.104.234 0-.104-.052-.13867-.156-.104l-.078.26c-.052.17333-.078.442-.078.806 0 .156.0087.27733.026.364.0347.08667.0607.04333.078-.13.052.12133.1387.19933.26.234.1387.03467.2253.052.26.052.0693 0 .1473-.01733.234-.052.0867-.03467.156-.06067.208-.078.1387 0 .2427-.00867.312-.026.0867-.03467.1733-.104.26-.208.0693.06933.1647.104.286.104.052 0 .13-.01733.234-.052.2253 0 .4593.09533.702.286.1213.052.2773.08667.468.104h.416v.026c.0173-.01733.052-.026.104-.026s.104.01733.156.052c.0693.01733.13.03467.182.052l.13-2.444c-.052-.12133-.0953-.312-.13-.572.052-.052.1387-.078.26-.078.1213 0 .208-.00867.26-.026.1387.12133.312.19933.52.234.208.03467.3293.052.364.052.0867.03467.208.08667.364.156s.2947.13867.416.208c.0867-.104.156-.24267.208-.416.052-.17333.0953-.29467.13-.364.0347-.12133.0693-.286.104-.494.0347-.22533.0953-.40733.182-.546.8667-.832 2.054-1.33467 3.562-1.508.156-.12133.2687-.25133.338-.39.2427 0 .4247.01733.546.052.0867.03467.208.08667.364.156.1733.052.3033.12133.39.208.312-.03467.5287-.052.65-.052.156.08667.2947.12133.416.104.0347 0 .1127.01733.234.052.1387.03467.2427.09533.312.182.26.12133.468.234.624.338.156.104.2773.24267.364.416.0173.03467.0693.104.156.208.104.08667.1473.19067.13.312-.0173 0-.026.01733-.026.052 0 .03467.0087.08667.026.156.0173.052.0173.09533 0 .13l-.442.546c-.0347.01733-.104.06067-.208.13s-.182.156-.234.26c.052.03467.0607.08667.026.156-.0173.06933-.026.11267-.026.13-.0173.03467-.0433.078-.078.13-.0347.052-.052.09533-.052.13.0173.03467.052.06933.104.104l-.104.468c.0347.06933.052.12133.052.156 0 .052-.0173.14733-.052.286h.026l-.026.442c.0347.03467.052.078.052.13 0 .052-.0173.11267-.052.182-.0173.052-.026.104-.026.156.0347.156.0433.32933.026.52v.416l-.026.026h.026v.208c0 .29467-.0173.51133-.052.65.0173.01733.0173.04333 0 .078v.078l.026.442c0 .0693-.0173.1733-.052.312l.026.026-.026.65c0 .1387.0087.2427.026.312v.416c0 .1733-.0087.3033-.026.39.0347.1387.052.2513.052.338l-.026.234.026.182c0 .052-.0173.1473-.052.286.0347.104.052.182.052.234 0 .0867-.0173.1993-.052.338-.0347.104-.13.2253-.286.364-.156.1387-.234.286-.234.442-.0693.0347-.1647.1387-.286.312-.0867-.0693-.208-.104-.364-.104-.1387-.0173-.2513-.0693-.338-.156-.0173.0347-.0347.0953-.052.182-.0173.0693-.0607.0953-.13.078-.3467-.2427-.6153-.364-.806-.364-.0867 0-.156.0087-.208.026l-.39-.468c-.156-.2773-.4593-.6413-.91-1.092-.0347-.0347-.078-.1213-.13-.26-.0347-.156-.104-.2427-.208-.26-.0867.0347-.1647.0953-.234.182-.052.0693-.0867.1213-.104.156-.1907.2947-.3813.6413-.572 1.04.0693.052.1733.104.312.156.156.052.2513.1213.286.208l.494.208c.0347.0347.078.0953.13.182.052.0867.104.104.156.052.1733.1213.3033.234.39.338.052.104.0953.26.13.468-.0347.0693-.0693.1647-.104.286-.0173.104.0087.1647.078.182l-.078.39.026.026c.0173.0867.0087.1993-.026.338-.0173.1387-.026.26-.026.364 0 .2253.0867.364.26.416.0867.0173.208.026.364.026.26 0 .5547-.0347.884-.104.3467-.0867.598-.1473.754-.182.3293-.0867.5893-.2687.78-.546.1907-.2773.39-.65.598-1.118.0867-.2427.182-.4507.286-.624.2253-.572.5807-1.6727 1.066-3.302l.026-.104v-.208c0-.1213.0347-.1907.104-.208-.0867-.156-.0693-.26.052-.312 0-.0173-.0173-.0607-.052-.13-.0173-.0867-.0087-.156.026-.208 0-.0867.0087-.1733.026-.26.0173-.104.026-.104.026 0h-.026c.0347.3813.1213.9967.26 1.846h.026c0-.0693.0087-.156.026-.26.0347-.104.052-.104.052 0-.0347 0-.0433.0347-.026.104.0173.052.026.0953.026.13.0347 0 .0433-.0347.026-.104-.0173-.0867 0-.1387.052-.156l.156.624h.026v-.78c0-.052-.0347-.156-.104-.312-.052-.1733-.0867-.2947-.104-.364 0-.0693.0607-.0953.182-.078.0693.3467.104.598.104.754h-.026v.234c0 .0693.0087.1213.026.156.0173.0173.0433.0087.078-.026.0173.0347.0693.1647.156.39v.026c0 .052.0087.104.026.156.0347.052.0087.0867-.078.104.0347.1213.1213.286.26.494-.0173.0347-.026.0867-.026.156s.0433.234.13.494l-.026.026c.0173.1387.026.286.026.442.0173.1387.0347.2773.052.416.0173.0693.0087.1733-.026.312-.0347.1387-.052.26-.052.364 0 .1733.0867.2513.26.234 0-.1213.0173-.234.052-.338.0347-.1213.0607-.104.078.052h-.026c0 .0693.0173.1733.052.312.052.1387.0347.234-.052.286l.026.182c0 .104-.026.208-.078.312.0173.0867.026.1907.026.312 0 .104.0173.182.052.234-.0347.0347-.052.0867-.052.156 0 .0347.0087.0693.026.104.0347.0347.078.0433.13.026l.026.026c-.0173.156-.0347.312-.052.468 0 .1387-.0087.2687-.026.39 0 .0347-.0087.0867-.026.156s-.026.13-.026.182c.0173.0347.052.052.104.052ZM62.638 8.288c-.0867-.24267-.182-.43333-.286-.572 0-.19067.0347-.35533.104-.494.0867-.13867.208-.21667.364-.234.104.01733.2253.04333.364.078.156.01733.2773.026.364.026.1213 0 .208-.00867.26-.026.1213.01733.286.06933.494.156.208.06933.3727.11267.494.13l.026-.338-.026-1.04c0-.22533.0087-.39867.026-.52-.0173-.052-.026-.14733-.026-.286 0-.156.0087-.27733.026-.364l-.026-.026.026-.494c0-.12133-.0087-.208-.026-.26-.6933.39867-1.1353.65-1.326.754-.1213-.01733-.2687-.04333-.442-.078s-.3207-.052-.442-.052c-.0693 0-.1733.01733-.312.052l-.026.026c-.0867-.01733-.234-.026-.442-.026-.1907 0-.338.01733-.442.052-.1733.08667-.2947.19067-.364.312-.0173.052-.0433.156-.078.312-.0347.13867-.052.26867-.052.39.208.104.364.16467.468.182.2253.22533.4247.45067.598.676.052.156.13.312.234.468-.0173.06933-.0607.19067-.13.364-.052.17333-.0607.32933-.026.468-.0347.17333-.052.29467-.052.364h.026l-.052 1.04c0 .08667-.026.21667-.078.39-.052.156-.0347.26.052.312-.0173.0693-.0433.1733-.078.312-.0173.1213-.0087.234.026.338 0 .0693-.026.1647-.078.286-.052.104-.0347.1647.052.182.364-1.17867.6327-2.132.806-2.86Zm-8.06-1.716c.0173.01733.0173.04333 0 .078 0 .01733-.0087.03467-.026.052.0173-.03467.026-.078.026-.13Zm-.156.26c.0693-.01733.1127-.06067.13-.13v.234c.0173.08667.0173.182 0 .286l-.052.026c-.052 0-.078-.06933-.078-.208.0867-.01733.13-.04333.13-.078 0-.052-.0433-.09533-.13-.13Zm-.026.78c-.0173-.13867 0-.208.052-.208.0693 0 .0953.06933.078.208h-.13Zm-.13.858c0-.08667-.0173-.16467-.052-.234-.0173-.06933-.0347-.06067-.052.026 0 .03467-.0087.104-.026.208 0 .08667.0347.11267.104.078l.026-.078Zm10.478 2.782c.0173-.0173.026-.052.026-.104l-.026-.234c0-.052.0087-.1213.026-.208.0347-.104.0173-.1647-.052-.182l-.286.286c-.0347.0693-.104.1993-.208.39-.0867.1733-.1127.338-.078.494l.364.026.182.026c.0173-.052.0433-.13.078-.234.0347-.104.026-.1907-.026-.26ZM53.98 10.94c-.052.0347-.0867.0953-.104.182-.0173.0867-.026.1473-.026.182l-.026.078c.0347.052.0693.078.104.078l.052-.52Zm17.264 2.314c-.0173-.0347-.0087-.052.026-.052.052-.0173.0607-.0087.026.026l-.052.026Zm0 .13c.0347-.0347.052-.0347.052 0 .0173.0347 0 .0433-.052.026v-.026Zm-20.826 5.72c.052.0173.0867 0 .104-.052.0173-.052.026-.0953.026-.13 0-.0347-.0087-.0173-.026.052l-.104.13Zm.572.416c-.0173-.052-.0087-.0953.026-.13.052-.0173.0867-.0173.104 0 .0347.0173.0173.0433-.052.078l-.078.052ZM93.942 2.542c.0867.06933.1387.17333.156.312.0347.12133.0607.19933.078.234v.13c-.0173.19067-.078.37267-.182.546-.0867.17333-.1993.34667-.338.52-.1387.156-.2427.286-.312.39-.0173.104-.0607.30333-.13.598-.052.29467-.13.546-.234.754-.0693.19067-.13.416-.182.676-.0347.26-.0607.442-.078.546-.1213 1.404-.182 3.5273-.182 6.37.0347.4507.0693.8493.104 1.196.052.3293.0953.6067.13.832.104.676.182 1.3607.234 2.054 0 .5547-.0087.9707-.026 1.248-.1387.8493-.338 1.6033-.598 2.262-.104.1733-.2427.3207-.416.442-.156.1213-.2513.104-.286-.052.0173-.0173.0433-.0693.078-.156s.0347-.1647 0-.234l-.338-.182c-.0693.0693-.13.0953-.182.078h-.156c.0173.0347.026.078.026.13 0 .0867-.0347.13-.104.13-.1213 0-.208-.078-.26-.234-.0693-.0867-.182-.1907-.338-.312-.156-.104-.2687-.1907-.338-.26-.0693-.0347-.1387-.0867-.208-.156s-.1387-.13-.208-.182c-.0347-.1213-.0867-.2167-.156-.286-.052-.0693-.104-.0607-.156.026-.3293-.1907-.6413-.4073-.936-.65-.2947-.2427-.65-.5633-1.066-.962.0173-.0173.052 0 .104.052.0867.052.1993.1127.338.182.156.0693.26.156.312.26.0693.0347.1907.104.364.208.1733.104.3467.1733.52.208v-.026l-.598-.39c-.0693-.052-.1647-.1127-.286-.182-.104-.0867-.1907-.156-.26-.208-.052-.0693-.052-.1387 0-.208l.26.104v-.026c-.0347-.052-.0867-.1213-.156-.208-.0693-.0867-.1213-.1733-.156-.26.1387.0693.2773.13.416.182.156.052.1733.026.052-.078.0347 0 .0693-.026.104-.078.0347-.052.0693-.0693.104-.052-.0347-.0693-.0953-.1733-.182-.312-.0693-.1387-.1473-.2513-.234-.338-.0867 0-.182-.052-.286-.156-.0173 0-.078-.052-.182-.156l.026-.026c-.052-.0867-.1647-.1647-.338-.234s-.2947-.1387-.364-.208c-.0693-.104-.1907-.1907-.364-.26-.156-.0867-.2687-.1473-.338-.182.1387.0173.2947.078.468.182.1733.0867.3033.1473.39.182.0693.0693.1127.104.13.104.0347-.0173.078-.026.13-.026.208.1387.4593.26.754.364.312.104.5287.182.65.234.0867 0 .2687.052.546.156.2773.104.4767.156.598.156.1733 0 .2947-.0607.364-.182l.104-1.534c.0347-3.484.208-7.65267.52-12.506 0-.22533-.0953-.338-.286-.338-.0173 0-.13.026-.338.078-.1907.104-.442.156-.754.156-.2947-.01733-.5287-.01733-.702 0-.0867-.03467-.182-.13867-.286-.312.0347-.22533.0867-.38133.156-.468.0347-.03467.13-.14733.286-.338.1733-.208.3553-.37267.546-.494.3293-.19067.65-.34667.962-.468001.3813-.207999.624-.329333.728-.364.052-.017333.1213-.026.208-.026.104 0 .1733.008667.208.026.052.017333.2167.121333.494.312001.5373.103999.9533.34667 1.248.728.0693.104.1733.25133.312.442.156.17333.26.34667.312.52ZM85.05 17.544c.1733.0347.3207.0953.442.182l.026.026v.078l-.286.13c-.0693.0867-.1127.208-.13.364 0 .156-.0173.286-.052.39-.312.4333-.65.6847-1.014.754-.208.104-.3727.156-.494.156-.104-.0173-.2773-.0433-.52-.078-.2427-.0347-.442-.104-.598-.208-.1387-.1387-.2947-.2427-.468-.312s-.3987-.1387-.676-.208c-.2253-.0867-.416-.208-.572-.364-.156-.156-.3033-.312-.442-.468-.1213-.156-.1993-.26-.234-.312-.104-.156-.2773-.3727-.52-.65-.1387-.208-.3727-.494-.702-.858-.0693-.052-.208-.1647-.416-.338s-.416-.3033-.624-.39c-.364.364-.7713.9187-1.222 1.664-.104.1387-.2167.2947-.338.468-.1213.1733-.2687.364-.442.572l-.416.468c-.208.26-.39.4593-.546.598-.156.1387-.3467.234-.572.286v.026c-.156.052-.3033.078-.442.078-.104 0-.182-.0087-.234-.026.156-.104.3033-.2253.442-.364.1213-.208.234-.364.338-.468.208-.312.5287-.91.962-1.794l.494-.988c.052-.26.078-.3987.078-.416-.0347 0-.0693.0087-.104.026-.0173.0173-.0433.0173-.078 0-.312-.26-.6067-.468-.884-.624-.1907-.1907-.3207-.3467-.39-.468-.1733-.1213-.312-.2253-.416-.312-.0867-.104-.1213-.2253-.104-.364.1213-.2773.208-.5807.26-.91.0693-.3467.1127-.5633.13-.65l.078-.546c.0173-.3813.0607-.9967.13-1.846l.104-1.82c-.0173-.364.0173-.806.104-1.326.0693-.48533.104-.84933.104-1.092 0-.60667-.182-1.092-.546-1.456.416-.104.8493-.156 1.3-.156 1.0747 0 1.8547.32933 2.34.988l-.052.624c-.052.208-.1647.52-.338.936 0 .81467.0087 1.42133.026 1.82.052.19067.078.468.078.832 0 .26-.0087.45067-.026.572 0 .08667-.0087.19933-.026.338 0 .1387.0087.2947.026.468 0 .0693-.0173.1473-.052.234-.0173.0867-.026.1647-.026.234s.026.0953.078.078l.182-.52.156-.52c.1733-.45067.2513-.806.234-1.066-.0693-.17333-.104-.32067-.104-.442 0-.19067.0693-.32933.208-.416.0347-.01733.0953-.03467.182-.052.0867-.03467.1473-.078.182-.13.0693-.01733.286-.06933.65-.156.0867 0 .26.00867.52.026.26.01733.4593.06933.598.156s.1993.22533.182.416c.0693.104.13.208.182.312.052.104.104.19067.156.26v.208c.0173.06933.0173.156 0 .26-.0347.06933-.13.27733-.286.624-.1387.3293-.3207.6153-.546.858-.0347.0693-.0867.182-.156.338-.0693.156-.1647.2687-.286.338-.0173.0347-.0607.1213-.13.26s-.1127.2687-.13.39l.806.65c.0693.0347.1647.104.286.208.1387.0867.2687.1213.39.104l.13-1.066c.0867-.936.13-2.0453.13-3.328V5.506c-.0173-.06933-.0173-.182 0-.338.0347-.17333.052-.29467.052-.364.052-.26.078-.50267.078-.728 0-.24267-.052-.364-.156-.364-.0347 0-.1127.04333-.234.13-.364.12133-.7453.182-1.144.182-.312 0-.624-.026-.936-.078-.208-.03467-.3553-.052-.442-.052l-.572.026c-.052-.03467-.1213-.06067-.208-.078-.0867-.01733-.156-.03467-.208-.052 0-.01733.0087-.03467.026-.052.0347-.03467.0607-.052.078-.052.104-.17333.26-.34667.468-.52 1.196-.69333 2.3053-1.118 3.328-1.274h.494c.208 0 .364.00867.468.026.1387.08667.3987.16467.78.234.0867.06933.234.14733.442.234.208.08667.3553.16467.442.234.0693.06933.1993.16467.39.286.1907.104.3293.208.416.312.0867.08667.104.19933.052.338.0347.13867.0693.26867.104.39.052.104.0953.19933.13.286-.0173.12133-.0693.21667-.156.286-.0693.06933-.156.13-.26.182-.0867.052-.1473.09533-.182.13-.1907.208-.3207.45067-.39.728-.052.26-.0867.58933-.104.988-.0347.468-.0867.81467-.156 1.04-.052.78-.078 1.56-.078 2.34 0 .7107.0347 1.7767.104 3.198-.0173.208-.0087.5287.026.962l.026.676c0 .5027-.0953.9013-.286 1.196-.104.104-.1733.1907-.208.26-.0347.052-.0087.104.078.156.1213.0347.3033.1213.546.26.3467.1387.6067.2253.78.26.104.052.156.1647.156.338 0 .156.0607.26.182.312Zm1.664-3.38c-.0347.0173-.1127.052-.234.104-.104.052-.208.0693-.312.052l-.026-.026-.234-.494c-.3987-.4507-.598-1.066-.598-1.846 0-.156.0173-.39.052-.702.1907-.6067.3467-1.36933.468-2.288 0-.12133.0173-.32067.052-.598.0347-.27733.052-.494.052-.65 0-.32933-.078-.598-.234-.806h-.156c-.104 0-.1733-.01733-.208-.052-.052-.06933-.0953-.156-.13-.26-.0173-.12133-.0433-.21667-.078-.286.3293-.32933.6587-.494.988-.494.0867.01733.2427.06067.468.13.2253.052.4333.12133.624.208.0693.03467.156.11267.26.234.104.104.1993.17333.286.208.052.12133.0867.29467.104.52.0347.22533.0693.39.104.494 0 .26.0173.63267.052 1.118l.026 1.118c0 .1907-.0347.4247-.104.702-.0693.26-.1127.4247-.13.494-.0173.0693-.0607.2513-.13.546-.0693.2773-.104.5287-.104.754 0 .3813.1127.6847.338.91.0173.0347.026.078.026.13 0 .0693-.0173.1473-.052.234-.0173.0693-.0347.13-.052.182 0 .0173-.0087.0953-.026.234-.0173.1213-.0867.208-.208.26-.1907.2773-.3207.338-.39.182l-.182-.182c-.0867-.104-.1907-.1473-.312-.13Zm-6.63 1.144c.0867.1213.2253.1993.416.234.208.0347.3553.0693.442.104l-.026-.078c-.0347-.0347-.1127-.104-.234-.208-.104-.104-.182-.2253-.234-.364-.104-.104-.2167-.234-.338-.39-.1213-.1733-.2167-.3033-.286-.39-.0347-.0693-.0867-.1907-.156-.364-.0693-.1733-.156-.312-.26-.416-.0347-.052-.0693-.1213-.104-.208-.0173-.104-.0433-.1733-.078-.208-.0347-.052-.0867-.0607-.156-.026-.052.104-.1127.234-.182.39-.052.156-.1127.286-.182.39-.052.104-.13.182-.234.234-.1733.2773-.3033.5807-.39.91.312.0693.5373.13.676.182.4333.156.78.234 1.04.234.1213 0 .2167-.0087.286-.026Zm6.63 1.742.026.052c0 .0173-.0087.026-.026.026-.0347 0-.078-.0173-.13-.052-.0347-.0347-.0607-.0693-.078-.104.0347 0 .0607.0087.078.026.0347.0173.0607.0347.078.052h.052Zm.988.78-.312-.234-.026-.052.338.286Zm4.134 3.978c.0173-.0173.0173-.026 0-.026v.026Z"/><defs><linearGradient id="a" x1="48" x2="48" y1="-7" y2="24" gradientUnits="userSpaceOnUse"><stop stop-color="#fff"/><stop offset="1" stop-color="#FFF9E5"/></linearGradient></defs></svg>