<svg xmlns="http://www.w3.org/2000/svg" width="145" height="37" fill="none"><g filter="url(#a)"><path fill="url(#b)" d="m6.23838 17.504-.64-.416c-.576-.3413-.864-.864-.864-1.568 0-.2987.05333-.5973.16-.896.128-.2987.29866-.5653.512-.8.10666-.1067.32-.1813.64-.224.32-.064.52266-.1707.608-.32.17066-.064.37333-.032.608.096.23466.1067.416.1493.544.128.49066.2773.864.576 1.12.896.10666.256.16.5653.16.928.02133.3627.04266.6293.064.8-.02134.0853-.032.2667-.032.544 0 .256-.064.448-.192.576 0-.0213-.01067-.0747-.032-.16-.02134-.0853-.05334-.128-.096-.128-.17067.1067-.36267.2773-.576.512-.512.3413-.98134.5013-1.408.48-.128-.0213-.24534-.0853-.352-.192-.08534-.128-.16-.2133-.224-.256Zm39.63452 6.432c.0426.1707.064.2773.064.32 0 .064-.0214.16-.064.288l.032.032-.416 1.088c-.064.1067-.1814.2453-.352.416-.1494.1067-.3307.192-.544.256-.192.0853-.32.1387-.384.16-.896.1707-1.8454.2773-2.848.32-1.0027.0427-1.5894.064-1.76.064l-1.056-.032c-.2347 0-.416.0107-.544.032l-.032-.032v.032c-1.088-.256-2.08-.7467-2.976-1.472-.4694-.5547-.8-.9813-.992-1.28-.2134-.512-.3627-.896-.448-1.152-.0214-.3627 0-.768.064-1.216.0853-.448.1386-.7573.16-.928 0-.1707.0106-.3307.032-.48.0426-.1707.064-.3413.064-.512 0-.0853-.0214-.2133-.064-.384h-.032c-1.0454 1.7707-1.856 3.3813-2.432 4.832-.0854.1067-.192.256-.32.448-.128.2133-.256.3627-.384.448-.128.1067-.288.1493-.48.128-.448.32-.7574.6507-.928.992v-.128c0-.1707.0426-.3093.128-.416-.0214-.064-.0214-.1493 0-.256-.0427-.0427-.192-.1707-.448-.384-.192.1707-.352.288-.48.352-.1067.064-.192.0107-.256-.16-.0854-.064-.1707-.1387-.256-.224-.064-.064-.096-.1493-.096-.256.0213-.0427.032-.1067.032-.192 0-.128-.032-.2773-.096-.448-.0427-.1707-.0747-.3093-.096-.416.0213-.0853.0426-.1813.064-.288.0213-.1067 0-.224-.064-.352v-.064c0-.064-.0214-.1387-.064-.224-.0214-.1067-.0427-.2027-.064-.288 0-.0427-.0107-.096-.032-.16 0-.0853.0106-.1493.032-.192.0213-.0427.0746-.064.16-.064l-.064-.32.384-.16c.2133-.1707.3733-.288.48-.352.5546-.7253 1.3013-1.856 2.24-3.392.0853-.1707.2026-.3627.352-.576.1493-.2347.256-.4373.32-.608.0853-.1707.096-.3413.032-.512-.064.0427-.1387.1173-.224.224-.064.1067-.1387.128-.224.064l-.448.032c-.192 0-.3414-.0427-.448-.128-.4694-.4693-.7574-.9173-.864-1.344-.4267-.5973-.768-1.024-1.024-1.28-.0427-.0213-.096-.064-.16-.128-.064-.0853-.128-.1173-.192-.096-.4907.384-1.2907.832-2.4 1.344-.128.1067-.2134.2347-.256.384-.0427.1493-.0747.256-.096.32h.032l-.032.736v.064l-.032.544c0 .128.0106.224.032.288l-.032.032h.032l-.064.512c.4266-.2347.9173-.576 1.472-1.024l.896-.64.032.032c-.128.1493-.2987.3733-.512.672-.4054.5547-.7894 1.0133-1.152 1.376v.032c.192-.0427.352-.1493.48-.32.1493-.1707.2453-.2773.288-.32.0426-.0427.0853-.1067.128-.192.064-.1067.1173-.1813.16-.224.0426-.0427.064-.0107.064.096l-.288.576c-.2987.6827-.608 1.248-.928 1.696-.0427.128-.128.3093-.256.544-.1067.2347-.16.416-.16.544 0 .128.0426.2027.128.224l-1.12 1.728.032.032c-.3414.4693-.7147.9387-1.12 1.408-.4054.4907-.8.9067-1.184 1.248-.6187.4267-1.1734.704-1.664.832-.064 0-.1707.0213-.32.064-.1494.064-.2134.0427-.192-.064h.416v-.032c-.4267-.0427-.768-.0853-1.024-.128-.256-.1493-.448-.288-.576-.416-.2134-.128-.3947-.2987-.544-.512-.128-.192-.2134-.32-.256-.384-.4267-.2133-.672-.576-.736-1.088l.672-.32c.1066-.0213.224-.064.352-.128.128-.0853.2453-.1493.352-.192 0 .0427-.0214.1387-.064.288-.0427.128-.0107.2133.096.256.256-.128.448-.2347.576-.32.128-.128.3093-.2773.544-.448.2346-.192.3946-.3413.48-.448.0853-.128.032-.192-.16-.192-.064.0213-.16.064-.288.128-.1067.0427-.2027.064-.288.064v-.032c.6613-.384 1.1413-.7787 1.44-1.184.0213-.064.0533-.1493.096-.256.0426-.128.1066-.2027.192-.224.1066-.4907.1493-.896.128-1.216.0213-.1493.064-.48.128-.992.064-.5333.0853-1.0347.064-1.504-.7467.256-1.28.416-1.6.48l-.32.032c-.32 0-.5334-.096-.64-.288-.0427-.128-.1387-.2987-.288-.512-.128-.2347-.2134-.416-.256-.544-.0427 0-.0427-.0213 0-.064.0426-.0427.0533-.0853.032-.128-.064-.0853-.16-.1813-.288-.288-.128-.1067-.224-.2027-.288-.288-.064-.1067-.0854-.224-.064-.352.0426-.1707.1493-.3093.32-.416.192-.1067.3093-.1707.352-.192.3413-.0853.6613-.3307.96-.736.9386-1.5787 1.5786-2.7307 1.92-3.456-.4694-.0213-.8747-.224-1.216-.608-.32-.40533-.512-.864-.576-1.376-.1067-.17067-.2667-.34133-.48-.512-.2134-.192-.3734-.34133-.48-.448-.064-.512.0746-.928.416-1.248.2133-.128.3626-.23467.448-.32.064-.10667.32-.40533.768-.896.0853-.04267.224-.128.416-.256.192-.128.3733-.21333.544-.256.1493-.14933.2453-.29867.288-.448h.032v.064c0 .14933.1066.352.32.608.0213.04267.0426.128.064.256.0213.128.0533.23467.096.32.0426.064.1066.08533.192.064.3413-.14933.704-.352 1.088-.608.384-.256.6506-.42667.8-.512.2346-.27733.3306-.50133.288-.672.0853-.064.2026-.128.352-.192.1706-.064.3093-.11733.416-.16.5546-.42667 1.1946-.64 1.92-.64.2346 0 .48.032.736.096.192-.04267.4053.01067.64.16.256.14933.448.224.576.224.256.128.6186.34133 1.088.64.2346.27733.352.512.352.704 0 .08533-.032.18133-.096.288-.0427.04267-.096.10667-.16.192s-.1387.11733-.224.096v-.032c-.384.10667-.6294.29867-.736.576-.064.04267-.16.128-.288.256-.1067.128-.2134.20267-.32.224v-.032c-.7254.32-1.4187.69333-2.08 1.12-.6614.40533-1.4827.96-2.464 1.664-.128.128-.2347.27733-.32.448-.064.17067-.0214.224.128.16.128.04267.2453.128.352.256.1066.10667.192.18133.256.224.0213.04267.064.10667.128.192.0853.064.0853.10667 0 .128.0426.08533.1386.2347.288.448l-.032.096c0 .0853.0746.16.224.224.1493.0427.2773.0427.384 0 .064-.064.128-.1067.192-.128.0853-.0427.16-.0853.224-.128.1706.0427.3093.064.416.064.1493 0 .2666-.0427.352-.128.0426 0 .16-.0213.352-.064.192-.064.3733-.0747.544-.032.7466.256 1.28.6613 1.6 1.216.128.128.192.2667.192.416 0 .128-.0534.2773-.16.448.1493-.0427.2773-.064.384-.064.128-.0213.224-.032.288-.032.4906-.96 1.1413-2.0267 1.952-3.2 1.0026-1.472 1.728-2.69867 2.176-3.68.1706-.59733.2666-1.03467.288-1.312-.1067-.08534-.288-.21333-.544-.384-.256-.192-.4694-.384-.64-.576.2986-.36267.6506-.65067 1.056-.864.384-.08533.6613-.128.832-.128.2986 0 .5973.064.896.192l.416.192c.32.04267.5546.10667.704.192.128.14933.288.26666.48.352.2133.08533.3626.14933.448.192.4053.27733.6933.544.864.8.0213.064.0533.17067.096.32.064.14933.096.288.096.416 0 .14933-.0427.26667-.128.352.0426.40533-.192.8-.704 1.184-.4694.21333-.896.36267-1.28.448l-.032-.032c-.1707.17067-.3094.288-.416.352-.1707.02133-.352.10667-.544.256-.1707.14933-.2987.24533-.384.288 0-.064-.0214-.096-.064-.096-.0427 0-.1174.04267-.224.128-.0854.08533-.1814.11733-.288.096.1493-.29867.224-.50133.224-.608 0-.128-.0534-.21333-.16-.256-.128.04267-.2667.13867-.416.288l-.288.288c-.3414.42667-.608.736-.8.928-.1707.064-.3094.192-.416.384-.0214.02133-.16.192-.416.512-.2134.27733-.3947.49067-.544.64-.1494.128-.32.2133-.512.256-.5547.576-1.0454 1.312-1.472 2.208.64-.3413 1.12-.608 1.44-.8l1.12-.768 1.632-1.152c.064-.08533.1386-.20267.224-.352.0853-.17067.1813-.288.288-.352.0426-.04267.1493-.096.32-.16.1706-.064.2773-.13867.32-.224.256-.08533.448-.13867.576-.16 0 .02133.0213.032.064.032V8.32c.0853.02133.2026.07467.352.16.1493.08533.2773.08533.384 0 .1066.10667.256.17067.448.192.192 0 .3306.01067.416.032.0853.04267.2026.128.352.256.1493.10667.2773.13867.384.096.256.128.4053.26667.448.416.064.04267.16.096.288.16.128.04267.2133.096.256.16.0426.04267.032.10667-.032.192-.3414.448-.8747 1.0987-1.6 1.952-.6827 1.1093-1.184 1.952-1.504 2.528-.0427.0853-.1387.256-.288.512-.128.256-.192.4907-.192.704 0 .0853.0213.192.064.32.064.0427.1386.0747.224.096.1066.0213.1813.032.224.032.0213.0213.0533.032.096.032.064-.0213.1066-.032.128-.032.0213.0213.0746.0747.16.16.0853.0853.1813.096.288.032l.32.448c.3626.128.512.32.448.576 0 .0213.0106.0853.032.192.0213.1067.064.1813.128.224l-.032.032.096 1.44-.032.64c0 .1493.0106.256.032.32-.0427 0-.0534.0213-.032.064.0213.0427.032.0747.032.096l-.032.032.128 2.048 1.152-.096c.512-.0853.8853-.1813 1.12-.288.2773-.4053.5653-1.0027.864-1.792l.384-1.28c.3626-1.088.64-2.0587.832-2.912l.128-.704c.256-1.1733.416-2.0907.48-2.752-.0214-.064-.032-.1493-.032-.256 0-.0213.032-.256.096-.704.0213 0 .032-.0213.032-.064h-.032l.064-.704c.0426-.0213.064.0107.064.096v.128c-.0214.0853-.032.2027-.032.352l.032.704c-.0427.0853-.064.1707-.064.256 0 .064.0213.1813.064.352.064.1707.096.2987.096.384h.032c0-.0213.0106-.0853.032-.192.0213-.128.0746-.2133.16-.256-.0427-.0853-.064-.1707-.064-.256 0-.0853.0106-.1707.032-.256 0-.2347.0106-.4693.032-.704.0426-.256.064-.2453.064.032l-.032.064c0 .064.0106.1173.032.16.0213.0213.032.0533.032.096-.0214.0427-.032.1173-.032.224 0 .128.0106.2453.032.352.0213.0853.0426.1707.064.256l-.032.032.192 2.016c.0426 0 .0533-.0427.032-.128 0-.0853.032-.1173.096-.096v.064c0 .0213-.0107.096-.032.224 0 .1067.0426.1493.128.128v-.032c.1066.0853.1706.128.192.128.0426-.0213.064-.096.064-.224-.0214-.0427-.032-.096-.032-.16 0-.0853.0106-.1707.032-.256.0213-.0853.032-.1707.032-.256 0-.0853-.032-.224-.096-.416-.0427-.2133-.0107-.3307.096-.352l.096.736c.0853.4693.128.7467.128.832l.064.96c.0213.064.032.1493.032.256v.288c0 .128.0106.224.032.288-.0854-.0213-.1067.0213-.064.128.0426.0853.096.1173.16.096v-.064c0-.064-.0107-.16-.032-.288-.0214-.1493.0106-.224.096-.224.0426.0853.064.2027.064.352s-.0214.2667-.064.352l-.032.384c0 .192.0533.2987.16.32.0426-.128.0533-.2773.032-.448v-.352c.0426 0 .0533-.0213.032-.064-.0214-.0427-.032-.0747-.032-.096.0213 0 .0213-.0107 0-.032v-.096h.032c-.0214-.1067-.0534-.256-.096-.448-.0214-.192-.032-.3413-.032-.448 0-.128.0213-.2133.064-.256-.0214-.0853-.0854-.2453-.192-.48-.0854-.2347-.1387-.4053-.16-.512 0-.1067.064-.1493.192-.128.0213-.0853.0213-.1493 0-.192-.0214-.0427-.032-.064-.032-.064.0213-.0213.064-.0427.128-.064l.256 1.184c.1706.896.3306 1.568.48 2.016.0426.2987.064.5013.064.608-.0214 0-.032.0213-.032.064.0213.0213.0426.0427.064.064l.16 1.728v1.312c-.0214.0213-.0534.0853-.096.192-.0427.0853-.0107.1493.096.192 0 .1707-.0427.4267-.128.768.0213.0427.032.1173.032.224 0 .0427-.0214.1493-.064.32.0213.0213.0533.032.096.032.0426-.0213.0746-.032.096-.032.0426.2987.064.512.064.64 0 .1707-.032.352-.096.544ZM21.7769 12.96c0-.9173-.0214-1.6107-.064-2.08l-.64.832-1.376 1.984c-.128.2133-.224.4587-.288.736.6826-.3627 1.2266-.6827 1.632-.96l.736-.512Zm22.432.288c0-.1067.0106-.16.032-.16.0213 0 .032.0533.032.16h-.064Zm.256.096c-.0214-.0427-.0107-.064.032-.064.064 0 .0853.0213.064.064h-.096Zm.224.544c0 .128-.0107.16-.032.096v-.064l.032-.032Zm-.672.16c0-.0427.0106-.064.032-.064.0213 0 .032.0213.032.064h-.064Zm.064.32c0 .064.0106.1707.032.32.0213.128-.0107.1813-.096.16v-.064l.032-.448h.032v.032Zm.192.8c-.0427-.0427-.064-.032-.064.032 0 .0427.0213.0533.064.032v-.064Zm.416.48c-.0214-.064-.0107-.096.032-.096.064 0 .0853.032.064.096h-.096ZM27.5369 16c.0213-.0427.0426-.064.064-.064.0426 0 .0533.0213.032.064h-.096Zm17.28.128c0 .0853-.0107.0853-.032 0h.032Zm-17.888.896v.032-.032Zm17.76.096h-.032c-.064 0-.0854.0427-.064.128.0426.064.064.1067.064.128h.032v-.256Zm1.12 5.696c-.0427-.0213-.064 0-.064.064 0 .0427.0213.0533.064.032v-.096Zm17.952-21.632c1.152.064 2.24.26667 3.264.608.32.36267.5653.69333.736.992.192.27733.2986.58667.32.928l.128-.032c.0853 0 .2133.064.384.192.0853 0 .192-.02133.32-.064.1493-.04267.2666-.02133.352.064h.128c.0853 0 .224-.04267.416-.128.192-.10667.352-.128.48-.064.128.04267.2986.14933.512.32.2346.17067.448.24533.64.224.128.04267.3733.17067.736.384.0213-.02133.0533-.032.096-.032.064 0 .128.032.192.096.064.04267.1173.07467.16.096.2773.14933.416.30933.416.48 0 .08533-.0427.16-.128.224.064.14933.096.24533.096.288 0 .02133-.0747.10667-.224.256-.1067.02133-.224.05333-.352.096-.128.02133-.2454.032-.352.032.064.08533.1493.16.256.224.1066.04267.1813.07467.224.096-.0214.10667-.0534.192-.096.256-.0214.04267-.064.08533-.128.128-.0427.02133-.0747.04267-.096.064-.064-.02133-.16-.032-.288-.032-.2134 0-.3627.07467-.448.224-1.3867.384-2.592.864-3.616 1.44-.3627.256-.608.58667-.736.992-.128.384-.2347.928-.32 1.632l-.096.704h.032c.1706-.4053.5866-.6507 1.248-.736.0213 0 .096.0107.224.032s.224-.0107.288-.096c.0426-.0213.128-.0533.256-.096.128-.064.2346-.0533.32.032h.064c.1066 0 .2453.0533.416.16.1706.0853.288.1387.352.16.0853.0213.2986.064.64.128.3626.0427.6826.1387.96.288.0426.0427.1173.1173.224.224.128.0853.192.192.192.32-.0214.0427-.0534.1173-.096.224-.0427.0853-.064.1707-.064.256.0426.0853.096.2027.16.352.0853.128.128.224.128.288 0 .1067-.0854.1493-.256.128-.0854.3413-.224.544-.416.608-.0427.064-.0854.1387-.128.224-.0427.064-.0854.1067-.128.128-.0427.0213-.1174.0213-.224 0-.1067 0-.2347.032-.384.096-.1494.064-.2667.096-.352.096.0213-.0427 0-.0533-.064-.032s-.1067.032-.128.032c-.0854-.0427-.16-.064-.224-.064-.1067 0-.2454.0427-.416.128-.1707.064-.32.1173-.448.16l-.832.352c-1.472.6187-2.5814 1.152-3.328 1.6l.096.48c.0426.064.096.16.16.288.0853.1067.1386.2133.16.32.2346.192.352.3627.352.512.0426.128.1493.3307.32.608.192.2773.2986.512.32.704-.448.4907-.8747 1.1307-1.28 1.92-.0427.0213-.1067.064-.192.128-.064.0427-.0854.096-.064.16.768-.1707 1.6426-.416 2.624-.736l1.376-.416c0-.064-.0214-.16-.064-.288-.0214-.128.0213-.2027.128-.224 0-.192-.0747-.352-.224-.48-.128-.128-.32-.2773-.576-.448-.0427-.0427-.128-.1173-.256-.224-.128-.128-.1814-.2667-.16-.416.0213-.0427.064-.128.128-.256.0853-.128.192-.2133.32-.256.2133-.0213.4373-.1173.672-.288.256-.1707.448-.288.576-.352.3413-.0853.6186-.128.832-.128.2346 0 .4373.0427.608.128.0853.0427.1706.1067.256.192.0853.064.16.1173.224.16.0853.0213.16 0 .224-.064.2773.128.512.2667.704.416.1066.1067.224.288.352.544.0853.1067.1493.288.192.544l-.032.064c0 .0427.0213.096.064.16.064.064.1066.128.128.192.0213.1067.064.256.128.448.0853.192.1493.3627.192.512.0426.128.032.2133-.032.256l.128.384c0 .064.0106.1813.032.352.0426.1707.0533.32.032.448l.032.032-.096 1.024c-.0854.64-.1494 1.28-.192 1.92-.0214.0427-.0427.1173-.064.224 0 .128-.0107.2347-.032.32-.0214.0853-.0747.128-.16.128-.2347.3627-.4267.6293-.576.8-.128.1707-.3307.288-.608.352-.064.0427-.16.096-.288.16-.1067.0853-.1814.1707-.224.256-.064-.064-.1067-.128-.128-.192 0-.064-.0107-.1173-.032-.16h-.032c-.0854 0-.1707.032-.256.096-.064.0853-.1174.1387-.16.16-.0854-.0427-.1814-.064-.288-.064h-.128c-.0854 0-.1387-.0853-.16-.256-.064-.0853-.096-.128-.096-.128v.064c0 .1707-.032.2667-.096.288-.4267-.7467-.736-1.44-.928-2.08.064-.1067.0746-.2027.032-.288-.0214-.0853-.096-.2133-.224-.384-.128-.1493-.2027-.2773-.224-.384l-1.504 1.12c-.064.0427-.1494.1067-.256.192-.0854.1067-.16.1707-.224.192-.064.0427-.128.0213-.192-.064-.0214.1067-.0534.192-.096.256-.0214.064-.0747.128-.16.192h-.064c-.0854 0-.1707.032-.256.096-.064.0853-.1174.1387-.16.16-.128.0853-.4587.2453-.992.48-.0854.0213-.2987.1067-.64.256-.512.2133-.896.3307-1.152.352-.0427-.0213-.0854-.032-.128-.032-.0214 0-.0427-.0213-.064-.064-.1067.1067-.256.1707-.448.192-.1707.0213-.2987.0427-.384.064h-.064c-.6614.0427-1.2694-.1067-1.824-.448-.0214-.128-.0534-.2347-.096-.32-.0427-.0853-.0747-.16-.096-.224-.1067-.128-.2454-.3413-.416-.64-.0214-.064-.064-.1707-.128-.32-.0427-.1493-.096-.2773-.16-.384-.064-.1067-.1494-.192-.256-.256-.0427-.1707-.1174-.3413-.224-.512-.1067-.1707-.1707-.2773-.192-.32-.1067-.2347-.16-.544-.16-.928.1493-.4693.3946-.8747.736-1.216.3413-.3413.7573-.5867 1.248-.736.1706-.2987.3093-.5227.416-.672.0213-.0427.128-.224.32-.544.192-.32.32-.6507.384-.992l-1.472.672c-.2774.064-.544.096-.8.096-.3414 0-.832-.064-1.472-.192-.256-.1707-.4374-.3093-.544-.416-.4054-.2773-.64-.4373-.704-.48 0 .0853-.032.224-.096.416-.0427.1707-.0427.3093 0 .416-.0214.128-.0427.2987-.064.512-.0214.2133-.064.4053-.128.576 0 .064.0213.1493.064.256.0426.1067.0106.1707-.096.192v.16c0 .192-.0107.3307-.032.416.064.0213.096.0853.096.192 0 .064-.0107.128-.032.192-.0214.064-.032.128-.032.192.0213.128.032.2027.032.224.0213 0-.0214.0107-.128.032-.0214.0427-.032.1067-.032.192 0 .128.0213.2773.064.448.064.1707.1066.3093.128.416l.128-.128c.0213 0 .032.032.032.096s.032.128.096.192c-.0214.128-.0854.2987-.192.512-.0854.2347-.096.4267-.032.576 0 .0853-.064.2133-.192.384-.1067.1707-.1387.3093-.096.416-.4054 1.0667-.9494 1.824-1.632 2.272-.4694.1067-.8854.16-1.248.16-.32-.192-.5974-.4053-.832-.64-.0427-.0213-.1174-.0533-.224-.096-.0854-.0427-.1067-.1067-.064-.192l-.352-.096c-.064-.128-.1707-.2347-.32-.32-.1494-.064-.2454-.1067-.288-.128-.2134-.2133-.384-.352-.512-.416-.1067-.1067-.1814-.2773-.224-.512-.0214-.064-.032-.16-.032-.288 0-.2773.0746-.544.224-.8.1706-.2347.352-.4587.544-.672.2133-.2347.3733-.416.48-.544.064-.2773.096-.704.096-1.28 0-.7893.1066-1.9733.32-3.552l.128-.992.032-1.408v-.256h.032c.128 0 .1173-.096-.032-.288-.0427-.7467-.16-1.312-.352-1.696l-1.408-1.376c-.1494-.384-.3414-.7787-.576-1.184 0-.0853.032-.192.096-.32s.128-.2133.192-.256c.064-.064.0853-.032.064.096.0853.1707.2346.288.448.352l.736.096c.512.0427.9386.128 1.28.256.0853-.0213.2133-.032.384-.032.8533 0 1.5466.3733 2.08 1.12.192.2773.3306.5653.416.864h-.032c.0213.0427.032.1067.032.192 0 .2133-.1707.448-.512.704-.0214.064-.0427.1493-.064.256-.0214.1067-.0534.192-.096.256-.0427.0427-.1067.0533-.192.032-.064-.128-.1814-.192-.352-.192-.0427 0-.128.0213-.256.064-.4267.2773-.7147.5653-.864.864-.0214.064-.0427.1707-.064.32 0 .128-.0427.2027-.128.224l.032.096c0 .064-.032.1387-.096.224-.0427.0853-.0747.1493-.096.192-.0427.1493-.1067.3627-.192.64-.0854.2773-.1814.5013-.288.672-.1494.4267-.256.9173-.32 1.472l-.16.736c.0213.0427.032.1067.032.192s-.0214.192-.064.32c-.0214.128-.0427.2347-.064.32l.032.032c-.0214.1067-.032.2453-.032.416 0 .1493-.0107.2667-.032.352 0 .0853.0106.192.032.32.0426.128.0426.2347 0 .32 0 .0427.0213.1173.064.224.0426.0853.032.1493-.032.192.0213.1067.0533.2987.096.576.064.256.1386.48.224.672.4693-.4053.992-1.0773 1.568-2.016.128-.2987.288-.6187.48-.96.2133-.3413.352-.5653.416-.672.4053-.6187.704-1.1413.896-1.568.192-.4267.288-.864.288-1.312 0-.1493-.0107-.2667-.032-.352v-.192c0-.192.0106-.3413.032-.448.128-.2347.3946-.4587.8-.672.0426-.064.0853-.1813.128-.352.0426-.1707.0853-.2987.128-.384.0426-.1067.1173-.16.224-.16-.0214.1067-.0747.2347-.16.384-.064.128-.1067.2453-.128.352 0 .0853.0533.1493.16.192.0853-.064.1386-.0853.16-.064.0426 0 .128-.0107.256-.032-.1067.2133-.16.416-.16.608 0 .1493.0106.256.032.32.0853.0853.1813.128.288.128.1066 0 .2346-.032.384-.096.1493-.0853.2773-.1387.384-.16.6826-.2347 1.3226-.512 1.92-.832.5973-.32 1.3973-.7573 2.4-1.312-.0427 0-.1174.0107-.224.032-.0854 0-.1494-.032-.192-.096-.192 0-.352.0107-.48.032s-.2347.0427-.32.064c-.0854.0213-.2134.064-.384.128-.1494.064-.288.0853-.416.064-.256.0853-.4587.128-.608.128-.0854.0213-.2027.064-.352.128-.128.064-.2347.096-.32.096-.064 0-.0854-.0533-.064-.16l.704-.16c.96-.448 1.888-.96 2.784-1.536.064-.0427.192-.128.384-.256.2133-.1493.3733-.32.48-.512-.0214-.2773-.064-.512-.128-.704-.064-.192-.1494-.1813-.256.032-.0854.0427-.2454.1067-.48.192-.2134.0853-.3947.128-.544.128-.1494 0-.288-.032-.416-.096-.2134.0427-.384.064-.512.064-.3414 0-.6614-.0747-.96-.224-.2987-.1493-.5334-.352-.704-.608-.0854-.064-.192-.1387-.32-.224-.128-.1067-.224-.2027-.288-.288-.0427-.0853-.032-.1813.032-.288l-.288-.704c-.064-.14933-.1387-.34133-.224-.576-.0854-.256-.1387-.42667-.16-.512.0426-.384.2026-.704.48-.96.128-.04267.3306-.13867.608-.288.2986-.17067.512-.23467.64-.192l-.032.032c.0213.04267.032.10667.032.192s-.0214.192-.064.32c-.0427.128-.0747.24533-.096.352v.096c0 .17067.064.288.192.352.1493.064.32.07467.512.032.64-.21333 1.2906-.48 1.952-.8.6613-.34133 1.056-.544 1.184-.608l.768-.384c.0213-.128.0746-.39467.16-.8.1493-.49067.224-.896.224-1.216 0-.14933-.0107-.256-.032-.32l.064-.512c0-.08533-.0107-.21333-.032-.384 0-.192-.0214-.352-.064-.48-.1494-.192-.3734-.36267-.672-.512-.2987-.17067-.5227-.30933-.672-.416-.0427-.04267-.1174-.11734-.224-.224-.1067-.128-.1494-.256-.128-.384.1066-.04267.16-.16.16-.352.0213-.192002.096-.309335.224-.352001.128.021333.2346.053333.32.096.0853.042667.16.074671.224.096001l.224.16Zm-10.24 1.248c.192.02133.48.032.864.032.9813.04267 1.7066.10667 2.176.192.32.08533.7146.288 1.184.608.3413.256.608.42667.8.512.0853.08533.2133.20267.384.352.1706.14933.288.288.352.416.0853.128.0853.26667 0 .416-.064.064-.1494.14933-.256.256-.1067.10667-.1814.21333-.224.32-.0214.08533-.0107.18133.032.288-.0427.08533-.1174.13867-.224.16-.1067.02133-.1814.04267-.224.064.0213.128-.0427.256-.192.384-.1494.128-.288.192-.416.192s-.192-.08533-.192-.256c-.0854.04267-.192.14933-.32.32-.128.14933-.2454.24533-.352.288-.1067-.02133-.2454-.05333-.416-.096-.1707-.04267-.32-.096-.448-.16-.1067-.064-.2027-.14933-.288-.256l-.384.032-.384-.032-.736.576c-.576.49067-1.0774.85333-1.504 1.088-.256.256-.7254.53333-1.408.832l.416-.352c.384-.40533.672-.72533.864-.96.192-.256.352-.53333.48-.832.2133-.59733.4053-1.20533.576-1.824l-.704-.736c-.0854-.08533-.224-.192-.416-.32-.1707-.14933-.3094-.29867-.416-.448-.1067-.04267-.2134-.096-.32-.16-.0854-.08533-.16-.14933-.224-.192l-.256.064-.064-.032c0-.10667.1173-.24533.352-.416.256-.128.576-.20267.96-.224.384-.04267.672-.07467.864-.096l.032.032.032-.032Zm4.992 12.672c-.0214-.064 0-.096.064-.096s.0853.032.064.096h-.128Zm-1.952.48c-.0214-.064-.0107-.096.032-.096.064 0 .0853.032.064.096h-.096Zm11.904 7.264c-.1494.256-.384.544-.704.864-.0214.0213-.0854.0747-.192.16-.1067.064-.1387.16-.096.288l-1.088.8c-.2987.1707-.4694.2667-.512.288v.032c.32-.1067.5973-.2347.832-.384l.576-.48c.2133-.2347.416-.4053.608-.512.192-.128.3946-.1707.608-.128.1066-.0427.16-.1813.16-.416 0-.1707.0213-.288.064-.352v-.064c0-.1067.0106-.224.032-.352.0426-.128.0533-.224.032-.288 0-.0853-.0427-.128-.128-.128l-.192.512v.16Zm-16.992 1.824c0-.0427-.0107-.0533-.032-.032-.0214.0213-.0427.0427-.064.064 0 .0213.0213.0213.064 0l.032-.032Zm41.504-22.24c0 .08533-.032.064-.096-.064h.032l.064.064Zm2.08 1.056c.7893.384 1.4186.68267 1.888.896.4906.192 1.0026.34133 1.536.448.2773-.10667.544-.16.8-.16.192 0 .416.05333.672.16.1281.08533.2671.192.4161.32.149.128.277.23467.384.32.128.064.267.096.416.096.149.04267.299.128.448.256.149.128.256.21333.32.256.384.21333.768.56533 1.152 1.056-.043.384-.096.672-.16.864-.213.17067-.373.40533-.48.704.043.064.064.16.064.288v.16c0 .192.043.33067.128.416l-.576.48c-.021.0213-.064.0747-.128.16-.043.064-.096.1067-.16.128-.043.0213-.096.0107-.16-.032-.107.0213-.235.0533-.384.096-.128.0427-.235.064-.32.064-.149 0-.267-.0427-.352-.128-.277-.1493-.6081-.2773-.9921-.384-.4694-.14933-.8534-.30933-1.152-.48-.064.02133-.16.05333-.288.096-.128.04267-.2347.032-.32-.032-.0427.02133-.1387.064-.288.128-.128.064-.2347.096-.32.096-.064-.02133-.0854-.096-.064-.224-.1067-.02133-.1707-.04267-.192-.064v-.128c.0213-.08533.0213-.17067 0-.256l-.256.032-.288-.032c-.0854.02133-.16.032-.224.032-.064-.02133-.096-.04267-.096-.064.0213-.02133.0853-.032.192-.032.192-.04267.3733-.128.544-.256.1706-.128.288-.21333.352-.256V8.48l-.576-.608c-.3627-.36267-.544-.544-.544-.544-.6614-.61867-1.2054-1.152-1.632-1.6-.4054-.46933-.7574-.97067-1.056-1.504-.0214-.04267-.0534-.11733-.096-.224-.0214-.128-.064-.224-.128-.288 0-.08533-.032-.23467-.096-.448-.0427-.21333-.064-.36267-.064-.448 0-.128.0533-.192.16-.192.512.256.9066.43733 1.184.544l.736.32Zm-8.928-.672c.192.064.4266.16.704.288.2773.10667.512.18133.704.224.0426.02133.1066.07467.192.16.1066.064.2133.064.32 0l.48.48c-.0427.59733-.0854 1.04533-.128 1.344-.1707.61867-.4267 1.20533-.768 1.76-.3414.55467-.7787 1.16267-1.312 1.824-.256.14933-.5227.37333-.8.672-.2774.29867-.48.512-.608.64-.064.0427-.16.1173-.288.224-.128.1067-.2667.1707-.416.192l-1.216 1.056c-.2774.1067-.4374.16-.48.16-.1067 0-.192-.064-.256-.192l-.672.416c-.4694.1707-.8534.416-1.152.736-.064.0213-.1494.0853-.256.192-.1067.0853-.192.0853-.256 0-.0427.0427-.1174.1173-.224.224-.0854.1067-.1174.1067-.096 0-.128 0-.2774.0533-.448.16-.1494.1067-.2667.1813-.352.224-.1067.064-.2774.1813-.512.352-.2347.1493-.416.2987-.544.448.6826-.9173 1.5146-1.9627 2.496-3.136.8746-1.0667 1.696-2.112 2.464-3.136.6613-.85333 1.2266-1.68533 1.696-2.496.2773-.34133.4266-.69333.448-1.056-.2134-.128-.448-.224-.704-.288-.256-.08533-.4267-.13867-.512-.16-.0214.04267-.0534.11733-.096.224-.0427.08533-.0854.14933-.128.192-.0427.02133-.0854 0-.128-.064.0426-.23467.128-.48.256-.736.128-.27733.2133-.45867.256-.544.0853-.04267.2453-.10667.48-.192.2346-.10667.4266-.21333.576-.32.064-.02133.16-.032.288-.032.128 0 .3413.02133.64.064l.352.096Zm9.6 6.336c-.0214-.04267-.0107-.064.032-.064.064 0 .0853.02133.064.064h-.096Zm-.16.032c0-.02133.0106-.032.032-.032.0213 0 .032.01067.032.032h-.064Zm-6.08 4.032c.064.0427.2026.1387.416.288.2133.128.3733.2987.48.512.064.0427.1173.1173.16.224.064.1067.1066.1813.128.224 0 .0427.0213.1067.064.192.0426.0853.032.1493-.032.192.0426.0853.1173.2347.224.448.1066.192.1386.3733.096.544-.2774.8533-.6294 1.6853-1.056 2.496-.4694.512-.8427.8853-1.12 1.12-.0854.0853-.224.1707-.416.256-.1707.0853-.3094.1707-.416.256 1.024-.192 2.0586-.416 3.104-.672l1.664-.384c.128-.0213.3626-.0533.704-.096.3626-.064.6826-.1493.96-.256.0853-.0427.1813-.096.288-.16.1066-.0853.1813-.128.224-.128.064 0 .1706.0747.32.224-.0427.0213-.064.064-.064.128.0213.064.032.1173.032.16-.064.128-.192.2987-.384.512s-.32.384-.384.512c-.0854.0853-.1707.2133-.256.384-.0854.1493-.1707.256-.256.32-.3414.2347-.672.544-.992.928-.0854.0853-.1707.1813-.256.288-.064.0853-.0854.1813-.064.288l-.576.576c-.0427.0427-.1494.128-.32.256-.1494.1067-.2454.2347-.288.384-.064.064-.16.1067-.288.128-.128.0213-.2134.0533-.256.096-.0427.0213-.0214.0853.064.192-.192.128-.4054.224-.64.288 0-.0213-.0214-.032-.064-.032h-.064c-.0214.0213-.0214.0427 0 .064h.064l-1.216.768v-.064c-.064.0213-.1387.064-.224.128-.064.064-.1174.1173-.16.16-1.2587.576-2.1547.96-2.688 1.152-.1707.0427-.48.1067-.928.192-.4267.0853-.8214.128-1.184.128-.7254 0-1.344-.416-1.856-1.248-.128-.128-.3414-.3307-.64-.608-.2987-.256-.5227-.512-.672-.768-.0427-.2133-.064-.384-.064-.512l.032-.48c-.0214-.064-.032-.1707-.032-.32 0-.4053.1173-.7893.352-1.152.256-.3627.576-.6293.96-.8.2986-.128.6293-.224.992-.288.384-.0853.6506-.1387.8-.16l2.912-4.288c.32-.512.608-1.088.864-1.728.2773-.64.448-1.0347.512-1.184 0-.0853-.032-.1707-.096-.256-.0427-.1067-.0747-.192-.096-.256-.0214-.064.0106-.1173.096-.16.4266-.0213.832.16 1.216.544l.32.448Zm-1.824-.8c-.0427-.064.0106-.096.16-.096l-.032.032-.128.064Zm9.152 3.648c.1066.0213.2133.0853.32.192l.032-.032c.2133.128.416.1813.608.16.0853.0427.16.1173.224.224.064.0853.1173.1387.16.16.064.0213.1493.0107.256-.032.0426 0 .1173.0107.224.032.1066.0213.192.0533.256.096.768.704 1.2371 1.6107 1.4081 2.72v.064c-.021.896-.203 1.792-.5441 2.688-.1067.2347-.256.4907-.448.768-.1707.256-.2987.448-.384.576-.064.064-.1494.16-.256.288-.0854.1067-.1814.1813-.288.224-.0854.064-.1814.0747-.288.032-.064 0-.1494.0213-.256.064-.1067.064-.1494.0533-.128-.032-.064-.0853-.1387-.1707-.224-.256-.064-.064-.1494-.096-.256-.096l-.544.704c-.128.1493-.3414.2453-.64.288l-.384-.64c0-.2987-.096-.512-.288-.64-.0427-.0853-.1494-.2453-.32-.48-.1494-.2347-.2134-.4693-.192-.704h.032c-.0854-.1493-.1387-.32-.16-.512-.0214-.2133-.032-.3413-.032-.384.064.0213.0853.0107.064-.032 0-.064-.0214-.1173-.064-.16 0-.1493.0213-.3947.064-.736l.224-.832c.2133-.7253.3306-1.2587.352-1.6-.0427-.1707-.096-.4053-.16-.704-.0427-.32-.1387-.5547-.288-.704-.0427.064-.096.0747-.16.032-.0427-.0427-.064-.096-.064-.16-.0214.064-.0534.096-.096.096-.064 0-.096-.0747-.096-.224 0-.128.0213-.2453.064-.352.064-.128.1493-.2027.256-.224.2986-.0427.6186-.032.96.032.3626.0427.6186.0747.768.096h.288Zm-1.76 1.92c0-.0427.0106-.064.032-.064.0213 0 .032.0213.032.064h-.064ZM122.449.768c.064.042666.16.095999.288.159999.128.064.235.128001.32.192001.107.064.16.14933.16.256.043.10667.139.26667.288.48.149.21333.245.39467.288.544.064.128.075.256.032.384.085.02133.128.096.128.224 0 .04267-.011.10667-.032.192-.021.064-.021.128 0 .192-.021.04267-.053.11733-.096.224-.043.08533-.021.11733.064.096-.021.128-.053.256-.096.384-.021.128-.032.23466-.032.32 0 .21333.181.352.544.416.064-.10667.203-.20267.416-.288.043.04267.117.096.224.16.107.04267.181.096.224.16.085.02133.213.032.384.032s.309.05333.416.16c.085.02133.203.05333.352.096.171.04267.288.08533.352.128s.053.08533-.032.128c.021.10667.085.20267.192.288.107.08533.181.13867.224.16l.736-.128c.128.04267.171.08533.128.128-.021.04267-.16.11733-.416.224s-.405.224-.448.352c.021.04267.064.128.128.256.064.10667.107.20267.128.288.021.08533.021.18133 0 .288l.512.352v.032c0 .04267-.043.096-.128.16-.064.064-.117.11733-.16.16l-1.632.608-2.464.928c-.107.02133-.181.10667-.224.256-.043.14933-.075.256-.096.32-.021.384-.107.8107-.256 1.28-.128.448-.213.768-.256.96l1.12-.288c.043-.0213.117-.0853.224-.192.107-.128.192-.2133.256-.256.085-.0427.16-.032.224.032.043-.0213.107-.032.192-.032s.171.0107.256.032c.107.0213.213.032.32.032.213-.1493.533-.2027.96-.16.043-.0213.096-.032.16-.032.107 0 .224.0213.352.064.256.0853.512.1493.768.192.064.0213.203.064.416.128.235.0427.448.1173.64.224.021.0213.085.0747.192.16.107.064.171.16.192.288.021.0213.075.096.16.224s.096.256.032.384c-.085.1067-.128.224-.128.352 0 .0853.011.1707.032.256.021.064.032.1387.032.224 0 .1493-.075.2773-.224.384-.299.128-.597.3627-.896.704l-.736-.192c-.085.0853-.16.128-.224.128-.149 0-.245.0107-.288.032-.021-.0427-.064-.0427-.128 0-.043.0213-.075.032-.096.032 0-.0213-.011-.032-.032-.032l-.256.064c-.021-.0213-.053-.0213-.096 0h-.064c-.043.0213-.107.0533-.192.096-.064.0213-.128.0107-.192-.032-.085.0213-.224.064-.416.128-.171.0427-.331.0427-.48 0-.363.1707-.811.3307-1.344.48-.384.0853-.779.2133-1.184.384-.171.0853-.512.256-1.024.512-.512.2347-.981.4373-1.408.608-.448.2987-.875.4907-1.28.576-.384.1493-.779.3413-1.184.576-.469.3413-.8.6187-.992.832-.043.064-.128.2027-.256.416-.128.192-.203.3947-.224.608.192 0 .48-.064.864-.192.427-.2133.747-.384.96-.512 1.003-.512 1.771-.8853 2.304-1.12.533-.2347 1.109-.4267 1.728-.576.064-.0213.192-.032.384-.032.213 0 .373-.0107.48-.032.128-.0427.16-.1067.096-.192.021-.1493.107-.2987.256-.448.171-.064.373-.0747.608-.032.213-.256.405-.4053.576-.448l.864.352c.085.0213.245.0427.48.064s.405.0533.512.096c.128.0427.224.128.288.256l.224.032c.171 0 .331-.0533.48-.16.213.0427.448.16.704.352.256.192.448.3307.576.416.064.1493.16.352.288.608.149.256.256.48.32.672v.064c0 .064-.032.1387-.096.224-.064.0853-.107.1493-.128.192-.043.1067-.107.2773-.192.512-.085.2133-.203.3947-.352.544-.107.0213-.192.096-.256.224-.043.1067-.075.1707-.096.192-.107.1707-.299.3733-.576.608-.235.2987-.395.512-.48.64-.149.1707-.373.384-.672.64l-.576.512c-.043.0427-.107.096-.192.16s-.117.128-.096.192c.192.0427.405.064.64.064h.48c.32.0213.576.096.768.224.213.128.32.3093.32.544 0 .128-.011.224-.032.288.107.0427.16.0853.16.128s-.085.1387-.256.288c-.171.1707-.224.32-.16.448h-.032l.16.8.032.096c0 .0853-.075.1707-.224.256-.149.0853-.299.128-.448.128-.085.064-.128.128-.128.192v.096c.021.064-.011.128-.096.192l-.224-.032-.256.064-.032-.032c-.064.0213-.149.032-.256.032-.107 0-.256-.0213-.448-.064-.171-.0427-.32-.0747-.448-.096-.171-.064-.384-.1173-.64-.16-.235-.0213-.395-.0427-.48-.064-.555.0213-1.387.1173-2.496.288-.171.0427-.384.0747-.64.096-.235.0427-.416.0747-.544.096-.64.0853-1.12.16-1.44.224-.299.0853-.544.2133-.736.384-.064-.064-.171-.16-.32-.288-.149-.128-.267-.2133-.352-.256-.085-.0427-.117.0107-.096.16.043.0427.128.1067.256.192.149.0853.245.1493.288.192.043.064.011.1173-.096.16-.107-.1067-.256-.2773-.448-.512-.171-.2347-.363-.384-.576-.448-.512-.384-.885-.6933-1.12-.928-.085-.3627-.309-.9387-.672-1.728-.277-1.0453-.48-1.8667-.608-2.464-.128-.6187-.192-1.248-.192-1.888 0-.32.011-.5547.032-.704l-1.952 1.056c-.683.2987-1.195.512-1.536.64-.085.0213-.224.0533-.416.096-.192.0427-.352.064-.48.064-.149 0-.256-.0107-.32-.032-.128-.0427-.288-.096-.48-.16-.171-.064-.309-.128-.416-.192-.043-.0427-.128-.1173-.256-.224-.128-.128-.213-.2667-.256-.416-.427-.3413-.768-.576-1.024-.704-.064-.1067-.139-.2133-.224-.32-.085-.1067-.16-.2133-.224-.32-.064-.128-.085-.256-.064-.384.555-.5547.96-.9813 1.216-1.28.128-.0427.32-.0853.576-.128.128-.0427.213-.064.256-.064.085 0 .192.0213.32.064.149.0213.267.0427.352.064.064-.064.149-.1707.256-.32.107-.1707.224-.2453.352-.224l-.448.736c-.107.192-.171.3947-.192.608.768-.2133 1.515-.5013 2.24-.864.725-.3627 1.611-.8427 2.656-1.44 1.387-.7893 2.368-1.312 2.944-1.568v-.032c-.064-.0213-.149-.0747-.256-.16-.085-.0853-.181-.1493-.288-.192-.085-.064-.171-.0747-.256-.032-.043-.0213-.128-.032-.256-.032h-.192c-.213 0-.352-.0427-.416-.128l1.28-.128c.277-.0853.629-.128 1.056-.128.512-.0213.917-.0853 1.216-.192.299-.1067.501-.32.608-.64l.224-1.12.192-.768c-.085-.0213-.181.032-.288.16-.107.128-.107.1813 0 .16v.032c-.832.448-1.771.9387-2.816 1.472-.299.128-.523.2133-.672.256-.555.2133-.939.4053-1.152.576-.021.0427-.075.096-.16.16s-.085.128 0 .192c-.043.0213-.128.064-.256.128-.128.0427-.203.0107-.224-.096l-.576.128c-.085-.1493-.192-.3947-.32-.736-.043-.064-.117-.1707-.224-.32-.085-.1493-.149-.2987-.192-.448-.149-.1493-.245-.3413-.288-.576-.021-.256-.043-.416-.064-.48-.021-.1493-.075-.3413-.16-.576-.064-.2347-.096-.4267-.096-.576 0-.064.021-.1813.064-.352.043-.0853.107-.2133.192-.384.107-.17067.213-.30933.32-.416.235-.08533.288-.192.16-.32.064-.04267.16-.11733.288-.224.128-.128.256-.20267.384-.224.107-.064.203-.16.288-.288.085-.14933.139-.24533.16-.288.299-.46933.704-1.216 1.216-2.24.043-.10667.107-.256.192-.448.085-.21333.139-.40533.16-.576l-.704-.384c-.107-.04267-.277-.064-.512-.064-.213-.02133-.384-.08533-.512-.192.277-.34133.544-.59733.8-.768.277-.192.587-.256.928-.192.043.04267.107.064.192.064.064 0 .181-.02133.352-.064.171 0 .32.04267.448.128.149.08533.309.20267.48.352.299.256.533.416.704.48.107.064.245.192.416.384.171.17067.331.27733.48.32.085.10667.192.288.32.544.021.10667.032.21333.032.32.021.08533.043.18133.064.288-.149.256-.331.66133-.544 1.216l.736-.288c.64-.192 1.141-.42667 1.504-.704.021-.14933.043-.33067.064-.544.043-.23467.064-.42667.064-.576h-.032l.192-1.408c0-.128.011-.256.032-.384.043-.14933.064-.288.064-.416 0-.256-.107-.39467-.32-.416-.107.128-.213.192-.32.192-.192 0-.491-.18133-.896-.544-.043-.064-.139-.13867-.288-.224-.128-.08533-.203-.18133-.224-.288.085-.10667.245-.30933.48-.608.235-.32.469-.565334.704-.736001.064-.042667.16-.074667.288-.096.149-.042667.256-.085333.32-.128001.256.128001.48.224001.672.288.192.064001.363.128001.512.192002l.512.16Zm2.496 3.84c0-.02133.011-.032.032-.032s.032.01067.032.032h-.064Zm-6.144 6.272c-.064 0-.096.0107-.096.032s.032.032.096.032v-.064Zm-.608.384c.085.0213.149-.0107.192-.096.064-.1067.043-.1493-.064-.128-.043.0213-.117.064-.224.128-.107.0427-.149.1067-.128.192l.224-.096Zm-2.4 8.288 1.024-.992c.149-.1067.352-.2347.608-.384.256-.1707.437-.32.544-.448l-.64.288c-.064.0427-.171.1173-.32.224-.128.0853-.256.1387-.384.16-.128.0853-.245.16-.352.224-.107.0427-.203.0853-.288.128-.469.2347-.885.5013-1.248.8.171-.0427.309-.064.416-.064l.544.032.096.032Zm2.752 2.496c-.021-.0213-.053-.0533-.096-.096-.021-.064-.064-.096-.128-.096-.085-.0427-.213-.096-.384-.16s-.309-.1387-.416-.224c-.064-.1067-.181-.1813-.352-.224-.149-.064-.267-.1173-.352-.16h-.032c-.149 0-.224.0533-.224.16s.075.192.224.256c.149.0213.267.0747.352.16.107.0853.203.2027.288.352.085.128.171.2347.256.32.043.0427.117.128.224.256.107.1067.181.1813.224.224.064.0427.096.0107.096-.096h.032l.288.288c.149.1067.245.2133.288.32.064.1067.053.224-.032.352.043.064.075.16.096.288.021.1067.043.192.064.256.149.0853.341.128.576.128.235.0213.405.032.512.032.363-.0427.64-.16.832-.352l.992-2.272c.043-.128.171-.3733.384-.736.149-.2773.288-.5653.416-.864.128-.2987.203-.576.224-.832-.235.0427-.405.1387-.512.288-.192.064-.373.16-.544.288-.149.1067-.299.2347-.448.384-.213.32-.48.5867-.8.8-.299.2133-.704.448-1.216.704-.107.0213-.235.0427-.384.064-.149 0-.267.0533-.352.16l-.096.032Zm.768 2.624c-.021-.064-.064-.0853-.128-.064-.043.0213-.075.0427-.096.064 0 .0427.032.0427.096 0h.128Zm18.048-7.168-.64-.416c-.576-.3413-.864-.864-.864-1.568 0-.2987.053-.5973.16-.896.128-.2987.299-.5653.512-.8.107-.1067.32-.1813.64-.224.32-.064.523-.1707.608-.32.171-.064.373-.032.608.096.235.1067.416.1493.544.128.491.2773.864.576 1.12.896.107.256.16.5653.16.928.021.3627.043.6293.064.8-.021.0853-.032.2667-.032.544 0 .256-.064.448-.192.576 0-.0213-.011-.0747-.032-.16s-.053-.128-.096-.128c-.171.1067-.363.2773-.576.512-.512.3413-.981.5013-1.408.48-.128-.0213-.245-.0853-.352-.192-.085-.128-.16-.2133-.224-.256Z"/></g><defs><linearGradient id="b" x1="72.5" x2="72.5" y1="-8" y2="30" gradientUnits="userSpaceOnUse"><stop stop-color="#DC6200"/><stop offset="1" stop-color="#F79320"/></linearGradient><filter id="a" width="143.767" height="36.8047" x=".620089" y=".12793" color-interpolation-filters="sRGB" filterUnits="userSpaceOnUse"><feFlood flood-opacity="0" result="BackgroundImageFix"/><feColorMatrix in="SourceAlpha" result="hardAlpha" values="0 0 0 0 0 0 0 0 0 0 0 0 0 0 0 0 0 0 127 0"/><feOffset dy="4.11429"/><feGaussianBlur stdDeviation="2.05714"/><feComposite in2="hardAlpha" operator="out"/><feColorMatrix values="0 0 0 0 1 0 0 0 0 0.848459 0 0 0 0 0.663242 0 0 0 0.25 0"/><feBlend in2="BackgroundImageFix" result="effect1_dropShadow_316_27556"/><feBlend in="SourceGraphic" in2="effect1_dropShadow_316_27556" result="shape"/></filter></defs></svg>