<svg xmlns="http://www.w3.org/2000/svg" width="95" height="24" fill="none"><path fill="url(#a)" d="m11.692 1.072.156-.130001C12.004.820666 12.1427.76 12.264.76c.0693.051999.182.103999.338.155999.1733.052001.3033.121331.39.208001.052-.06933.1127-.06933.182 0 .0867.06933.1473.11267.182.13.0347.01733.1473.06067.338.13.1907.052.3293.156.416.312.0693.052.156.12133.26.208.1213.08667.2167.17333.286.26.0693.08667.1127.19067.13.312.1213.104.182.26.182.468v.13c-.0693.03467-.1127.104-.13.208-.0173.08667-.0347.14733-.052.182-.208.416-.3293.73667-.364.962-.0347.052-.0953.13-.182.234-.0867.08667-.1387.17333-.156.26 0 .052-.0087.156-.026.312 0 .13867-.0433.25133-.13.338v.182c0 .06933-.0173.13-.052.182 0 .29467-.026.58933-.078.884 0 .052.0087.078.026.078.0347 0 .0607.00867.078.026-.052.12133-.0867.27733-.104.468 0 .19067-.0087.338-.026.442-.104.34667-.1733.76267-.208 1.248.0693-.01733.13-.06933.182-.156.0693-.08667.13-.156.182-.208.052-.01733.104-.04333.156-.078.052-.03467.0953-.052.13-.052l.104.052c.052.08667.13.11267.234.078.1213-.03467.208-.052.26-.052.052 0 .104.026.156.078.312.19067.624.312.936.364.1213.03467.3033.06933.546.104.4507.156.7887.546 1.014 1.17v.26c.0173.104.0087.1993-.026.286-.0867.1213-.2253.208-.416.26-.1733.052-.312.0953-.416.13-.364.0693-.6153.156-.754.26-.2773-.1213-.7107-.2167-1.3-.286l-.546-.078c-.0347 0-.0607.026-.078.078-.0173.052-.0347.078-.052.078-.1213.26-.182.5547-.182.884 0 .2427.026.5027.078.78.052.2773.0867.4593.104.546.0693.2253.1127.4247.13.598.0173.104.052.2947.104.572.0693.2773.1473.52.234.728.0173.0693.0433.0953.078.078.0347-.0173.0693-.0607.104-.13.052-.0867.0953-.1473.13-.182.104-.208.1733-.364.208-.468.104-.1733.2253-.4507.364-.832l-.182-.286c-.0693 0-.1127-.0173-.13-.052 0-.052.026-.104.078-.156.052-.0693.0867-.1127.104-.13-.0347-.104-.1213-.156-.26-.156h-.026l.13-.052-.39-.052c.2427-.0693.416-.1473.52-.234.0347-.0693.078-.1733.13-.312.052-.1387.1127-.2513.182-.338.052-.0173.1127-.0347.182-.052.0693-.0173.156-.026.26-.026.0347 0 .1213.0173.26.052.052.0347.13.078.234.13.1213.052.208.1213.26.208v-.026c.0693-.052.1387-.0607.208-.026.0693.0173.1473.0693.234.156.0867.0693.1647.13.234.182.208.1733.3467.3207.416.442.052.26.208.5287.468.806 0 .2947-.0693.546-.208.754-.0173.1387-.0953.2947-.234.468-.1213.1733-.1993.3033-.234.39-.0693.104-.0867.1733-.052.208-.052.052-.1127.13-.182.234-.052.104-.0953.182-.13.234-.0347.0347-.0953.104-.182.208-.0867.0867-.13.182-.13.286-.0347.052-.156.182-.364.39-.104.0173-.1993.104-.286.26-.0693.1387-.13.2253-.182.26-.1733.052-.3033.1473-.39.286.052.0693.1213.182.208.338.0867.156.182.2773.286.364.1733.2427.5027.5373.988.884l.364.182c.2773-.3467.5287-.8493.754-1.508l.208-.52c.1213-.1733.208-.3553.26-.546.052-.208.104-.4593.156-.754.0173-.1907.0607-.416.13-.676 0-.1213.026-.1213.078 0 .052.1213.0867.1127.104-.026v.494h.026l.104-.338v.286c.104-.0693.1733-.182.208-.338.0347-.1733.0607-.2947.078-.364 0 .2947-.0087.5113-.026.65 0 .5893-.0173 1.0313-.052 1.326-.0347 0-.052-.0087-.052-.026l-.026.026c.0173.052.026.1127.026.182s.026.104.078.104h.026c.1213-.6933.1993-1.4127.234-2.158.0693-.0347.0953 0 .078.104v.156c.104.0173.156-.0693.156-.26v-.416c.0693-.0173.104.0173.104.104v.234c0 .676.0087 1.1873.026 1.534l.026.026c.0173-.208.026-.52.026-.936v-.91h.026c.052.156.078.338.078.546.0173.1907.026.338.026.442.0867.2947.13.754.13 1.378l.052.78c.052.052.0867.0953.104.13.0347.0347.026.0347-.026 0-.0173.0867-.0173.1907 0 .312.0173.104.026.1907.026.26.0693.052.104.1387.104.26l-.026.312v.052c.052.104.078.2773.078.52 0 .1213-.0087.2687-.026.442-.0173.1907-.0173.3467 0 .468.0347.1733.052.3207.052.442 0 .0693-.0173.1907-.052.364-.0347.4507-.0953.78-.182.988.104-.052.13-.0173.078.104-.052.1213-.078.1907-.078.208-.1733.1733-.338.3033-.494.39-.104.0347-.182.052-.234.052l-.364-.026c-.156-.052-.4247-.0953-.806-.13-.1213 0-.3033-.0173-.546-.052-.208-.1387-.3553-.2513-.442-.338-.104-.0173-.208-.078-.312-.182-.0867-.104-.1647-.182-.234-.234-.1213-.0867-.3033-.1993-.546-.338-.5373-.3293-.9967-.6413-1.378-.936-.3813-.2947-.7193-.624-1.014-.988-.0693-.0867-.1733-.2167-.312-.39-.1213-.1733-.2253-.3293-.312-.468-.26.0173-.572.104-.936.26-.3813.0693-.6587.104-.832.104-.1387-.052-.2773-.052-.416 0s-.2167.0867-.234.104c-.1213-.0173-.2513.0087-.39.078s-.2427.1127-.312.13c-.104.052-.2167.0867-.338.104-.12133.0173-.19933.026-.234.026-.06933.0347-.13.0607-.182.078-.03467.0347-.08667.0693-.156.104-.01733-.0173-.06933-.052-.156-.104-.08667-.0347-.19067-.052-.312-.052h-.13c.01733-.104.104-.1733.26-.208.156-.0347.26867-.0693.338-.104l.598-.416c.7453-.52 1.2913-.8753 1.638-1.066.3987-.312.7193-.598.962-.858-.0173-.156-.0693-.338-.156-.546-.0693-.2253-.1213-.3987-.156-.52l-.182-.858c-.208-.936-.3467-1.638-.416-2.106 0-.26-.0347-.65-.104-1.17-.0347-.26-.0693-.65-.104-1.17-.1733.0173-.364.0607-.572.13-.1907.0693-.3293.1127-.416.13-.2773.052-.63267.1647-1.066.338-.19067.104-.32067.2167-.39.338-.156.1387-.14733.1647.026.078.17333-.0867.32933-.182.468-.286l-.416.416v.026c.13867-.0173.182.0087.13.078-.03467.052-.13.1387-.286.26-.13867.1213-.24267.2253-.312.312l-.13.234c-.06933-.0173-.12133 0-.156.052-.03467.052-.06067.13-.078.234-.01733.104-.03467.182-.052.234-.03467.5547-.052.9707-.052 1.248l.026 1.638c.01733.0867.026.208.026.364l-.026.702c-.01733.1213-.03467.3207-.052.598-.01733.26-.06067.4767-.13.65-.08667.0867-.14733.234-.182.442-.03467.208-.06067.3553-.078.442-.052.1213-.104.286-.156.494-.052.208-.12133.3813-.208.52-.06933.052-.16467.182-.286.39-.03467.0347-.06933.052-.104.052.052-.1387.01733-.208-.104-.208s-.234.052-.338.156c-.01733.0347-.052.078-.104.13-.03467.052-.052.104-.052.156v.026c-.052.0693-.12133.1387-.208.208-.06933.0867-.13.1473-.182.182-.06933.0173-.16467.0693-.286.156-.104.104-.19067.1647-.26.182-.08667.0173-.16467-.0087-.234-.078s-.11267-.1127-.13-.13c-.03467-.0173-.078-.052-.13-.104-.052-.0347-.104-.052-.156-.052H4.88c-.08667-.0693-.13-.1647-.13-.286l.026-.312c0-.0173-.01733-.0693-.052-.156-.03467-.0693-.09533-.1127-.182-.13-.03467-.104-.104-.208-.208-.312-.104-.0867-.17333-.1473-.208-.182-.12133-.1733-.19933-.3293-.234-.468-.104-.0347-.19933-.078-.286-.13-.06933-.0347-.13-.0693-.182-.104-.052-.052-.11267-.1213-.182-.208-.06933-.104-.14733-.1907-.234-.26-.01733-.0347-.052-.0693-.104-.104-.03467-.0347-.052-.0607-.052-.078l.026-.052c.06933.0173.182.026.338.026.17333 0 .26-.0173.26-.052 0-.0173-.04333-.052-.13-.104-.052-.104-.11267-.156-.182-.156-.08667 0-.21667.0607-.39.182-.156.104-.26867.1647-.338.182-.104 0-.21667.0173-.338.052-.12133.0347-.19933.0607-.234.078-.572-.0173-1.031334-.4333-1.378001-1.248-.017333-.0693-.017333-.156 0-.26.034667-.1213.052-.1993.052-.234.069333-.0867.147333-.13.234-.13.104 0 .234001.0607.390001.182.13867.0347.24267.052.312.052.12133 0 .234-.0433.338-.13.624-.3293 1.21333-.7107 1.768-1.144.55467-.4333 1.23067-.9967 2.028-1.69l.026-1.3c-.22533.1387-.42467.2253-.598.26-.12133.1213-.30333.234-.546.338-.22533.104-.40733.1907-.546.26-.12133.0347-.37267.1127-.754.234-.364.104-.68467.2253-.962.364-.08667 0-.16467-.026-.234-.078-.052-.052-.11267-.1213-.182-.208-.06933-.0867-.11267-.1473-.13-.182-.03467-.1213-.104-.286-.208-.494-.208-.4853-.338-.858-.39-1.118-.03467-.1733-.052-.312-.052-.416 0-.0867.00867-.1473.026-.182.104.0347.208.1387.312.312.06933.052.09533.0433.078-.026-.01733-.0867-.026-.1473-.026-.182l-.156-.26c.03467-.0347.08667-.0867.156-.156.06933-.0867.13-.13.182-.13l.078.026c.06933.208.13867.3727.208.494.06933.052.156.078.26.078.08667 0 .16467-.0087.234-.026s.14733-.026.234-.026c.64133-.1733 1.30867-.3987 2.002-.676.06933-.0347.19067-.0953.364-.182.17333-.0867.338-.1473.494-.182.052-.0693.078-.182.078-.338 0-.104-.00867-.208-.026-.312-.01733-.1213-.026-.234-.026-.338-.01733-.052-.03467-.156-.052-.312-.01733-.1733-.08667-.29467-.208-.364l-.572-.026c-.052-.06933-.052-.14733 0-.234.052-.104.08667-.182.104-.234.052-.08667.19933-.25133.442-.494.052-.13867.14733-.208.286-.208.03467 0 .156.026.364.078.364.03467.65.156.858.364.12133.06933.22533.12133.312.156.104.03467.182.06067.234.078.156.19067.27733.30333.364.338.22533.13867.45067.3727.676.702 1.17867-.416 2.158-.69333 2.938-.832.1733-.052.26-.19067.26-.416 0-.19067-.0173-.47667-.052-.858-.0347-.58933-.052-1.04-.052-1.352 0-.39867.026-.78867.078-1.17-.0173-.34667.0433-.884.182-1.612l.104-.676c.0347-.34667.052-.61533.052-.806 0-.156-.0087-.27733-.026-.364-.052-.03467-.1387-.052-.26-.052h-.182c-.1213-.01733-.182-.08667-.182-.208 0-.08667.0173-.19067.052-.312.052-.13867.0867-.25133.104-.338l.364-.286ZM8.78 2.32l.13-.026c.104-.03467.182-.052.234-.052l.182.026c.052.03467.12133.09533.208.182.08667.06933.17333.11267.26.13.13867 0 .286.052.442.156.0347.13867.1127.27733.234.416.1387.12133.234.208.286.26.0347.06933.0953.208.182.416.104.19067.1907.40733.26.65.0693.22533.0953.45933.078.702-.0347.13867-.104.26867-.208.39s-.1733.208-.208.26c-.1213.08667-.26.17333-.416.26-.0347.12133-.0693.156-.104.104-.0173-.052-.0433-.078-.078-.078-.0347-.01733-.078 0-.13.052-.27733.19067-.572.338-.884.442-.312.08667-.702.182-1.17.286l-.39-.026c-.12133 0-.208.01733-.26.052-.69333.32933-1.092.52-1.196.572-.052-.052-.078-.052-.078 0 0 .03467-.026.06933-.078.104-.06933.01733-.156.01733-.26 0-.104-.03467-.19067-.052-.26-.052-.12133 0-.208.06067-.26.182-.03467-.06933-.078-.09533-.13-.078-.03467.01733-.078.052-.13.104-.052.052-.104.09533-.156.13-.26.08667-.48533.234-.676.442-.156.08667-.30333.208-.442.364-.12133.13867-.19933.234-.234.286-.01733 0-.04333.01733-.078.052-.03467.01733-.06067.01733-.078 0 .26-.32933.572-.66733.936-1.014l.728-.728c.55467-.52.962-.91867 1.222-1.196.312-.22533.572-.468.78-.728.104-.12133.26-.26867.468-.442.208-.19067.364-.37267.468-.546.052-.052.208-.25133.468-.598.052-.12133 0-.182-.156-.182-.08667 0-.182.01733-.286.052-.104.01733-.19067.026-.26.026-.34667.052-.64133.16467-.884.338.03467-.06933.11267-.17333.234-.312.12133-.156.19933-.286.234-.39-.08667 0-.182.01733-.286.052-.104.03467-.17333.06067-.208.078.03467-.104.08667-.19067.156-.26.08667-.06933.19067-.13.312-.182.13867-.06933.25133-.13867.338-.208.06933-.01733.208-.11267.416-.286.08667-.03467.19933-.06067.338-.078.156-.03467.286-.06933.39-.104Zm7.592 1.716.104-.026c.156-.052.312-.078.468-.078.3813.13867.65.26.806.364.0173 0 .0693.00867.156.026.0867.01733.1473.052.182.104.2947.01733.7193.078 1.274.182.1733.12133.3467.27733.52.468.1733.17333.2947.29467.364.364.0173.03467.0433.104.078.208.0347.08667.052.17333.052.26-.0173.052-.052.13-.104.234-.0347.104-.078.182-.13.234 0 .104-.0347.19067-.104.26-.052.06933-.1387.13-.26.182-.1213.052-.208.09533-.26.13-.0347.01733-.104.052-.208.104-.0867.03467-.156.052-.208.052h-.052c-.0347-.08667-.1213-.13-.26-.13L18.504 7l-.416-.13c-.052.06933-.13.104-.234.104-.104 0-.26-.06067-.468-.182-.104-.01733-.2167-.04333-.338-.078-.104-.03467-.1907-.052-.26-.052-.0867 0-.1473.00867-.182.026-.052.03467-.0953.078-.13.13-.0347.03467-.0607.052-.078.052-.0173 0-.052-.026-.104-.078-.0867.03467-.1733.078-.26.13-.0693.03467-.13.06933-.182.104-.26.26-.5027.442-.728.546-.0347 0-.052-.00867-.052-.026-.104.01733-.2427.06067-.416.13-.0347.01733-.078.052-.13.104-.052.052-.1127.08667-.182.104.052-.06933.1733-.208.364-.416.208-.208.4073-.442.598-.702.1907-.27733.3207-.572.39-.884 0-.06933-.026-.12133-.078-.156-.0347-.03467-.0953-.06067-.182-.078-.0867-.01733-.156-.03467-.208-.052l-.442-.416c-.0347-.104-.0173-.17333.052-.208.0867-.052.2167-.09533.39-.13.1733-.03467.286-.06933.338-.104.1907-.156.3033-.27733.338-.364.1907-.19067.3467-.30333.468-.338ZM18.92 7.26h.026-.026ZM4.776 9.522H4.75c-.052.052-.06067.08667-.026.104.03467-.01733.052-.052.052-.104Zm5.486.442-.026-.026c-.208 0-.35533.06067-.442.182.19067 0 .3467-.052.468-.156Zm-.754.26.104-.052c.06933-.0693.052-.0867-.052-.052-.08667.0173-.13867.052-.156.104h.104Zm-.156 0-.052-.026c-.03467 0-.104.0173-.208.052-.104.0173-.156.0433-.156.078l.026.026c.06933 0 .13867-.0173.208-.052.08667-.0347.14733-.0607.182-.078Zm-.624.234.052-.052v-.026c-.06933 0-.19067.0347-.364.104-.06933.0693-.04333.0867.078.052s.19933-.0607.234-.078Zm1.82 1.118c.4853-.104.8233-.208 1.014-.312v-.052c-.1907.0173-.4333.0607-.728.13-.1213.0347-.3033.0953-.546.182-.2253.0867-.43333.1213-.624.104l-.026-.026c-.26.156-.68467.338-1.274.546l-.078.078c-.052.0347-.052.0693 0 .104.13867-.0693.19933-.078.182-.026-.06933.0173-.13.078-.182.182-.052.0867-.078.1733-.078.26 0 .052.01733.078.052.078.01733 0 .04333-.0173.078-.052.13867-.0867.26-.182.364-.286.208-.1213.37267-.2513.494-.39-.06933.0173-.16467.052-.286.104-.104.052-.19067.078-.26.078h-.052c.03467-.0867.11267-.1473.234-.182.13867-.0347.234-.0607.286-.078.416-.104.702-.208.858-.312.2253-.0693.416-.1127.572-.13Zm-2.08.364h-.026.026Zm.442.624-.078.026c-.052.0867-.06933.1213-.052.104.03467-.0173.078-.0607.13-.13ZM5.504 13.63l.052-.026c.08667-.1213.078-.1733-.026-.156-.104 0-.19933.052-.286.156l-.78.468c.17333.0173.364-.0347.572-.156.208-.1387.364-.234.468-.286Zm-1.274.598c.01733 0 .026-.0173.026-.052h-.052c0 .0347.00867.052.026.052Zm14.924.104v-.026h.026c0 .1387-.0173.3293-.052.572l-.104.546c-.0693.052-.0953.026-.078-.078.0347-.104.052-.182.052-.234.0867-.26.1387-.52.156-.78Zm.65.572v-.156l.026.026-.026.65c-.0347-.0693-.0433-.156-.026-.26.0173-.104.026-.1907.026-.26Zm-.234-.026.026-.052c.052-.052.0867-.026.104.078.0173.104.0087.156-.026.156l-.026-.026c-.052.052-.0867.0607-.104.026 0-.052.0087-.1127.026-.182Zm-.286.338h.052l.026.026c0 .0693-.0173.104-.052.104-.0347 0-.0607-.0173-.078-.052-.0173-.0347 0-.0607.052-.078Zm-.052.364.026-.078h.026c0 .052-.0087.0953-.026.13-.0173.0347-.026.0173-.026-.052Zm-.39.884.052.078h.026c.0173-.0347 0-.0693-.052-.104-.0347-.0347-.0433-.026-.026.026ZM5.582 18.18v-.156c.03467-.4507.052-.7973.052-1.04-.312.3467-.55467.5893-.728.728-.104.1387-.24267.2773-.416.416-.17333.1213-.29467.208-.364.26l-.208.234c.676.2773 1.17.4507 1.482.52.104-.1213.156-.286.156-.494 0-.208.00867-.364.026-.468Zm10.14-.26.104-.052c-.0173.0173-.0433.052-.078.104-.0347.0347-.0433.0173-.026-.052Zm-11.96.728v.052h-.026c0 .0347.00867.052.026.052.01733-.0173.026-.0347.026-.052.01733-.0347.00867-.052-.026-.052Zm0 .39c-.03467-.1213-.104-.182-.208-.182h-.078c-.01733.052 0 .104.052.156.052.0347.104.052.156.052l.078-.026Zm.286.156v-.078c-.052-.0347-.078-.0347-.078 0 .01733.0347.03467.0693.052.104.03467.0347.04333.026.026-.026Zm.13.078.052.052s.00867.0087.026.026c.03467 0 .052-.0173.052-.052-.01733 0-.04333-.0087-.078-.026-.01733-.0347-.03467-.0347-.052 0Zm-.312.364v.026c.052.0173.06933.0087.052-.026-.01733-.052-.03467-.052-.052 0ZM5.66 22.73h.078c.052.0173.06067.026.026.026-.03467.0173-.078.0173-.13 0-.03467 0-.026-.0087.026-.026ZM31.478 3.1l.676.546c.0347.052.104.156.208.312.1213.156.1907.312.208.468.0693.08667.104.19067.104.312 0 .13867-.0433.29467-.13.468-.0693.17333-.1127.286-.13.338-.0173.03467-.0607.09533-.13.182-.0693.06933-.0693.11267 0 .13l-.234.494c.1907.12133.4247.182.702.182.156 0 .2687-.00867.338-.026.0693.01733.1473.03467.234.052.0867.01733.156.06067.208.13.364.156.6587.30333.884.442.26.17333.39.416.39.728 0 .156-.0347.29467-.104.416.052.052.078.11267.078.182 0 .052-.0173.13-.052.234-.0173.104.0173.182.104.234-.0347.104-.0867.26867-.156.494-.0693.22533-.156.38133-.26.468.0173.03467.026.09533.026.182 0 .0867-.0173.2167-.052.39h.026c.1733-.64133.5373-1.56867 1.092-2.782l.364-.832c.156-.39867.234-.73667.234-1.014 0-.22533-.0433-.416-.13-.572 0-.208.0173-.416.052-.624.0347-.22533.104-.416.208-.572.1387-.156.2773-.40733.416-.754.052-.052.1127-.13867.182-.26.0867-.12133.1733-.208.26-.26.0867-.06933.182-.09533.286-.078.104-.03467.182-.052.234-.052.1387 0 .26.052.364.156.1907 0 .3553-.03467.494-.104.0867 0 .1993.00867.338.026.1387 0 .1127-.026-.078-.078v-.026c.0347-.03467.0867-.052.156-.052.104 0 .208.06067.312.182.104.104.1733.17333.208.208.0693.052.1733.12133.312.208.156.06933.26.156.312.26.3813.26.6673.676.858 1.248-.0173.208-.078.40733-.182.598-.0867.17333-.1993.35533-.338.546-.1387.19067-.2513.34667-.338.468-.1387.24267-.286.56333-.442.962.0867-.01733.364-.08667.832-.208.4853-.12133.9273-.286 1.326-.494.156 0 .2687.00867.338.026.0867.01733.1733.06933.26.156.9187.06933 1.82.45933 2.704 1.17.104.208.1993.35533.286.442l.026.52-.026.052c0 .03467.026.078.078.13.0693.052.104.104.104.156-.0347.156-.0867.37267-.156.65-.0693.2773-.1473.5113-.234.702-.0347.26-.1213.6327-.26 1.118l.026.026-.312 1.43c-.0347.26-.078.4853-.13.676-.0347.1907-.0693.3553-.104.494-.1213.5027-.208.936-.26 1.3-.052.364-.0693.7193-.052 1.066-.0347.0867-.078.182-.13.286-.052.0867-.0867.1733-.104.26-.0173.0867 0 .1647.052.234 0 .0347-.0087.1127-.026.234-.0173.1213-.052.2253-.104.312l.026.026-.52 1.404c-.0693.0867-.1473.2427-.234.468-.0867.208-.1733.3553-.26.442-.0693.1907-.1647.3553-.286.494-.1213.156-.26.312-.416.468l-.364.364c-.0867.0173-.182.052-.286.104-.0867.052-.1647.0867-.234.104-.0693.0173-.1387 0-.208-.052-.572-.0173-1.2133-.1993-1.924-.546-.0693-.052-.2167-.156-.442-.312-.2253-.1387-.416-.2947-.572-.468-.052-.0347-.1387-.0693-.26-.104-.1213-.0347-.208-.078-.26-.13-.052-.0347-.0433-.0867.026-.156.052.0347.1213.0607.208.078.104.0347.182.0607.234.078.1387 0 .2253-.0087.26-.026.052-.0173.0347-.0693-.052-.156-.26-.2253-.4593-.4073-.598-.546-.1213-.1387-.2253-.3033-.312-.494l-.494-.182c-.0693-.052-.1733-.1127-.312-.182-.1213-.0693-.1473-.104-.078-.104-.0173-.104-.0953-.1733-.234-.208-.1213-.0347-.1993-.0953-.234-.182-.1387-.052-.2687-.1473-.39-.286-.5027-.312-.884-.598-1.144-.858l.364.26v-.026c0-.052-.026-.0953-.078-.13-.0347-.052-.0607-.0867-.078-.104-.052-.0173-.1127-.052-.182-.104-.0693-.0693-.13-.0953-.182-.078.0173.052.026.1387.026.26l-.026.572c-.0173.104-.0347.234-.052.39 0 .1387-.0173.26-.052.364-.0173.104-.0693.1907-.156.26-.052.0173-.104.0433-.156.078-.0347.0347-.0693.052-.104.052-.0173 0-.052-.026-.104-.078-.1213.052-.208.104-.26.156-.052.052-.078.1213-.078.208.0347 0 .0433.0347.026.104v.104c-.0173.0173-.026.052-.026.104l.026.208c-.0173.0347-.0433.104-.078.208-.0173.0867-.052.0953-.104.026-.052.0347-.1127.0607-.182.078-.052 0-.104.0087-.156.026-.052.2773-.1907.4767-.416.598-.0693 0-.1387.0087-.208.026-.052.0173-.0953.0173-.13 0-.0347 0-.0347-.0347 0-.104-.1387-.1387-.2167-.2687-.234-.39l-.52-.546c.0347-.0347.026-.0607-.026-.078-.0347-.0173-.0607-.026-.078-.026-.052-.1213-.156-.2773-.312-.468-.2947-.2947-.4853-.5113-.572-.65 0-.0173.0173-.0173.052 0 .052.0173.0607 0 .026-.052v-.052l-.026-.078c-.0173 0-.052.0087-.104.026s-.0953-.0087-.13-.078l-.598.234c-.364.1733-.6847.338-.962.494-.052.0347-.104.078-.156.13-.0347.052-.0867.0953-.156.13-.052.0347-.0867.026-.104-.026v.078c0 .0867-.0433.1647-.13.234s-.156.13-.208.182c-.104-.0173-.2167-.078-.338-.182-.1213-.104-.2253-.182-.312-.234-.208-.2427-.3553-.3987-.442-.468-.1387-.2427-.2513-.416-.338-.52-.1907-.2427-.338-.494-.442-.754 0-.104-.0173-.2167-.052-.338-.0173-.1213-.026-.234-.026-.338 0-.1213.0173-.1993.052-.234-.0347-.104-.052-.1907-.052-.26 0-.104.026-.208.078-.312 0-.9187-.0607-2.0107-.182-3.276-.1907-.7453-.2947-1.1527-.312-1.222-.052-.0347-.13-.0953-.234-.182-.104-.104-.156-.1127-.156-.026-.052.0693-.13.1213-.234.156-.104.0173-.1733.0347-.208.052.052-.0693.0867-.182.104-.338.0347-.156.078-.2687.13-.338.0693-.052.1213-.1213.156-.208.052-.104.0867-.182.104-.234.26-.52.546-1.014.858-1.482.3293-.48533.754-1.07467 1.274-1.768.1387-.19067.364-.50267.676-.936.312-.43333.572-.82333.78-1.17.0347-.06933.0953-.182.182-.338.104-.156.156-.312.156-.468l-.442.052c-.104.03467-.1733.052-.208.052-.104 0-.2513-.03467-.442-.104-.1733-.08667-.2947-.13867-.364-.156 0-.104.0347-.19067.104-.26s.1473-.13.234-.182c.104-.052.182-.09533.234-.13.052-.104.1387-.19067.26-.26.1213-.08667.208-.156.26-.208.1907-.104.5287-.234 1.014-.39.052-.01733.1213-.026.208-.026.1213 0 .2513.01733.39.052.156.03467.26.06067.312.078.3813.104.6587.19933.832.286l.104.156Zm.988 3.12c-.0173.08667-.0433.11267-.078.078-.0347-.03467-.052-.078-.052-.13 0-.052.0347-.06067.104-.026l.026.078Zm3.38 5.122c0-.052-.0173-.0693-.052-.052-.0347 0-.0693.0173-.104.052-.0173.0347-.0087.0607.026.078-.0173.052-.0433.13-.078.234-.0347.104-.0867.1473-.156.13-.0347.0173-.0867.0607-.156.13-.052.0693-.0867.0607-.104-.026.1733-.1733.2687-.2773.286-.312l-.364.312c-.0347.052-.078.13-.13.234-.052.104-.1213.1733-.208.208-.052.052-.1473.1213-.286.208-.1387.0867-.2253.156-.26.208-.0347.052 0 .1213.104.208l.026.078c0 .052-.0173.104-.052.156-.0347.052-.0607.0953-.078.13l-.052 1.274c.052.156.078.3293.078.52 0 .1907-.0087.3553-.026.494s-.0347.26-.052.364v.078l-.026.39c0 .1387.0347.2513.104.338.5893.2773 1.222.4853 1.898.624.9013.1733 1.8807.312 2.938.416.1387.0347.3813.0693.728.104.1733-.312.338-.6933.494-1.144.5893-1.9067 1.0573-4.2727 1.404-7.098 0-.03467.0087-.08667.026-.156.0347-.06933.052-.12133.052-.156.0173-.052-.0087-.078-.078-.078l.078-.26v-.26c0-.24267-.026-.416-.078-.52-.6413.104-1.248.26867-1.82.494-.416.208-.7367.35533-.962.442-.4853.22533-.8753.416-1.17.572-.2947.156-.5633.3553-.806.598-.1907.2427-.4333.5027-.728.78l-.572.572h-.026l.182-.286v-.078Zm-8.32-1.716c-.0693.052-.13.08667-.182.104-.0347.01733-.0173-.01733.052-.104h-.026c-.052.03467-.1387.11267-.26.234-.104.104-.1993.182-.286.234-.0693.0347-.156.0347-.26 0-.0693.052-.13.0867-.182.104-.052.0173-.078.0347-.078.052 0 .0173.0347.0607.104.13.26.0347.494.052.702.052.0173-.0173.0433-.0173.078 0h.104c-.052.2773.052.5633.312.858.0173.104.0433.26.078.468.052.1907.104.3467.156.468.0693.0347.1213.052.156.052.1387 0 .3293-.1213.572-.364.1213-.0347.3033-.052.546-.052.208-.0693.3553-.13.442-.182l.26.026c.0867 0 .156-.026.208-.078.052-.0173.1213-.026.208-.026.1387 0 .234.0087.286.026.1213.0347.208.078.26.13.0693.052.13.13.182.234-.0347.052-.1213.13-.26.234-.1387.104-.234.1907-.286.26-.052.0693-.0433.1473.026.234.0693.0173.13.0433.182.078.0693.0173.0607.0347-.026.052-.156.0693-.234.1907-.234.364 0 .1387.0693.208.208.208.052 0 .104-.0087.156-.026.052-.0347.104-.052.156-.052.052 0 .078.0347.078.104l-.286.156-.754.312c-.3813.1387-.6933.2687-.936.39-.2427.104-.4593.2513-.65.442-.052.0693-.0867.1387-.104.208 0 .052.0087.1213.026.208h-.026c-.0173.1213.0173.2773.104.468.104.1907.156.3293.156.416l.858-.156c-.052-.0693-.13-.1733-.234-.312-.0867-.1387-.1387-.2687-.156-.39l.182.234c.052.052.13.1473.234.286.1213.1213.2253.1733.312.156-.052-.1387-.1387-.286-.26-.442-.1213-.156-.2167-.286-.286-.39.0867.052.208.156.364.312.156.1387.2947.2427.416.312.1387.052.2773.0607.416.026.1387.0347.26.052.364.052.1387 0 .2427-.052.312-.156.052-.2947.0867-.624.104-.988.0347-.3813.0607-.6413.078-.78.052-.988.078-1.976.078-2.964.0173-.0347.026-.104.026-.208 0-.1387-.0087-.234-.026-.286v-.052l.026-.494c0-.104-.0087-.182-.026-.234h.026l-.052-.338-.026-.026c-.6413 0-1.118-.026-1.43-.078-.0347 0-.104.00867-.208.026-.0867.01733-.156-.00867-.208-.078 0 .01733-.0173.026-.052.026-.0347 0-.0867-.01733-.156-.052-.0693-.03467-.1127-.026-.13.026h-.026c-.052 0-.1213.00867-.208.026-.0693.01733-.104-.00867-.104-.078-.104.06933-.2253.156-.364.26-.1213.08667-.234.156-.338.208-.104.052-.2167.06933-.338.052l-.13.078Zm11.206 2.054h.104c.052 0 .0607.0173.026.052l.338.234c.1213.0347.234.1213.338.26.104.1213.1733.1993.208.234.0173.052.1213.2167.312.494.208.2427.3293.442.364.598-.1907.52-.3467.884-.468 1.092-.2253.2773-.442.494-.65.65-.052.0173-.1213.0347-.208.052-.0693.0173-.1387.026-.208.026l-.13-.286-.104.026c-.052 0-.13-.0173-.234-.052-.0867-.052-.1733-.0607-.26-.026-.0347-.0693-.0953-.1213-.182-.156-.0867-.0347-.13-.078-.13-.13-.156.104-.338.312-.546.624-.1213.2253-.234.39-.338.494-.0867.0867-.2167.1387-.39.156.156-.156.26-.3467.312-.572.0693-.2253.1127-.364.13-.416.0347-.4507.052-.7973.052-1.04-.0347-.2427-.1387-.5893-.312-1.04l-.52-.286c-.052-.0173-.13-.0347-.234-.052-.104-.0347-.1907-.078-.26-.13-.0347-.0347-.0607-.0867-.078-.156-.0173-.0867-.052-.156-.104-.208.104-.0693.2167-.156.338-.26.1387-.104.26-.182.364-.234.104-.052.2167-.0693.338-.052.2773-.0867.442-.1387.494-.156.0347.0173.0953.0433.182.078s.1387.0173.156-.052c.0347.0173.0693.0347.104.052.0347.0173.078.026.13.026.0693 0 .13-.0433.182-.13l.78.26.104.026Zm-9.36 3.354c0 .0347-.0087.0433-.026.026-.0173-.0347-.026-.0607-.026-.078 0-.0173.0173-.0173.052 0v.052Zm7.774 4.42c-.0173-.0347 0-.052.052-.052s.0693.0173.052.052h-.104Zm.65 1.04c-.0173-.0347-.0087-.052.026-.052.052 0 .0693.0173.052.052h-.078ZM53.448 3.178c.6933.156 1.3347.45933 1.924.91.0173.052.0433.13867.078.26.0347.12133.052.234.052.338 0 .08667-.0347.182-.104.286-.052.104-.0953.19933-.13.286-.0173.08667 0 .17333.052.26v.052c0 .08667-.0347.182-.104.286-.052.104-.0867.17333-.104.208-.0693.06933-.182.182-.338.338-.156.13867-.3033.25133-.442.338-.1213.08667-.2513.13-.39.13-.0693 0-.156-.01733-.26-.052-.0693-.052-.1647-.104-.286-.156-.104-.052-.1907-.09533-.26-.13-.052-.01733-.13-.026-.234-.026-.0867 0-.1387-.04333-.156-.13-.0347-.01733-.0867-.04333-.156-.078-.0693-.052-.1387-.078-.208-.078-.052 0-.0953.026-.13.078l-.104.026c-.0347 0-.0693-.00867-.104-.026-.0347-.01733-.0867-.026-.156-.026l-1.04 1.014c-.1213.19067-.3033.39-.546.598-.2253.19067-.3987.34667-.52.468-.2427.104-.416.19933-.52.286.624-.78 1.1613-1.62067 1.612-2.522.0347-.12133.0953-.27733.182-.468.104-.208.1473-.39.13-.546-.1213-.06933-.234-.17333-.338-.312-.104-.13867-.182-.234-.234-.286l-.312-.442c-.3293-.416-.5547-.76267-.676-1.04.052-.01733.104-.03467.156-.052.0693-.01733.1473-.026.234-.026v.026c.2253-.052.546-.14733.962-.286l.936-.26c.2773.052.5633.19067.858.416l.39.312.286.026Zm17.394 14.066c0 .052.0087.13.026.234.0173.0867 0 .1647-.052.234.0173.0173.026.052.026.104s-.0173.1213-.052.208c-.0173.0693-.0347.13-.052.182-.0173.0693-.078.1993-.182.39-.104.1733-.1473.312-.13.416-.052.0693-.1213.1993-.208.39-.0693.1733-.1473.3033-.234.39-.156.0867-.312.208-.468.364-.156.156-.2687.26-.338.312-.1213.052-.3727.1647-.754.338-.364.1907-.7107.338-1.04.442-1.2827.312-2.288.52-3.016.624-.936.0693-1.6467.104-2.132.104 0-.0173-.0173-.026-.052-.026v.026l-1.326-.13c-.52-.0867-1.2827-.2513-2.288-.494-.7627-.6067-1.2567-1.014-1.482-1.222-.6933-.8667-1.04-1.6467-1.04-2.34.0173-.5027.0693-1.0313.156-1.586.0867-.572.1387-.9187.156-1.04.104-.4853.1733-.884.208-1.196l.026-.364c0-.0693-.0173-.156-.052-.26-.1733-.208-.2773-.3727-.312-.494.0173-.052.0433-.1387.078-.26.052-.1387.13-.234.234-.286.1387-.052.2947-.0867.468-.104.1733-.0173.286-.026.338-.026v.078c0 .0867.0173.13.052.13.052 0 .13-.0693.234-.208.156-.0347.312-.0867.468-.156.1733-.0693.286-.1127.338-.13l.598-.312c.5373-.2947.9273-.4767 1.17-.546.0693-.052.1213-.1213.156-.208.052-.104.0867-.182.104-.234.0693-.0347.1213-.0953.156-.182.052-.0867.0867-.1387.104-.156.2427-.53733.546-1.43867.91-2.704l.208-.702-.832.936c-.052.052-.1473.13867-.286.26-.1213.12133-.208.208-.26.26-.0347.052.0173.052.156 0l-.208.234c-.208.312-.4767.56333-.806.754-.312.17333-.78.39867-1.404.676-.2427.0693-.416.104-.52.104-.156-.0347-.338-.13-.546-.286-.0867-.08667-.1733-.16467-.26-.234s-.1733-.14733-.26-.234c-.0173-.052-.052-.11267-.104-.182-.0347-.06933-.0347-.13 0-.182-.0173-.06933-.0433-.156-.078-.26-.0173-.12133-.026-.21667-.026-.286 0-.13867.0347-.25133.104-.338-.1213-.208-.182-.40733-.182-.598 0-.24267.1127-.39867.338-.468.0347 0 .104-.00867.208-.026.1213-.01733.208-.06067.26-.13l-.026.104c0 .052.0433.09533.13.13.0867.01733.1213.08667.104.208l.312-.052c.4333-.156 1.5947-.598 3.484-1.326l1.274-.52c.0173-.01733.026-.052.026-.104l-.026-.26c0-.104.052-.182.156-.234.104-.06933.1647-.11267.182-.13.052-.01733.1473-.052.286-.104s.2687-.06933.39-.052c.104.03467.2947.09533.572.182.2773.08667.5373.14733.78.182.208.12133.4853.35533.832.702l.416.624.104.442c0 .208-.0347.39-.104.546-.0347.104-.1387.25133-.312.442-.156.17333-.2513.32067-.286.442-.0867.13867-.2513.32933-.494.572-.156.29467-.3553.598-.598.91-.2427.29467-.39.4767-.442.546-.0347.0347-.0867.1127-.156.234-.052.104-.0693.104-.052 0 .0867-.1213.13-.2427.13-.364 0-.12133-.052-.19067-.156-.208-.0173.08667-.0607.17333-.13.26l-.156.156c-.0693.0693-.1387.1213-.208.156-.0693.0173-.104.0347-.104.052l.182.104h.026c.0693 0 .1387.026.208.078.0693.052.1213.0953.156.13.208.1733.4073.468.598.884-.0173.0347-.0607.104-.13.208-.052.104-.1213.182-.208.234l-2.002.624c-.364.1387-.7973.3207-1.3.546l-.702.312c-.052.0347-.1473.0953-.286.182-.1387.0693-.2427.1473-.312.234l.104.546c0 .052-.0173.1127-.052.182-.0173.052-.0347.104-.052.156 0 .0347.0347.052.104.052l-.13.806c-.0867 1.1267-.13 1.8113-.13 2.054l-.026.234c0 .2947.104.5027.312.624.2253.052.624.1127 1.196.182.0867 0 .2253.0087.416.026.1907.0173.312.0087.364-.026l.572-.026c0 .0347.026.052.078.052.0693-.0173.1127-.026.13-.026.4853-.0867.9447-.1907 1.378-.312l.546-.13c.1387-.052.338-.1127.598-.182.26-.0693.4767-.1473.65-.234.1733-.104.312-.2427.416-.416.208-.3467.3467-.6933.416-1.04.0867-.364.182-.884.286-1.56.0173-.1733.0173-.3207 0-.442v-.338c0-.2773.0433-.4247.13-.442l.052-.806c-.0173-.0173-.026-.052-.026-.104.0347 0 .0433-.026.026-.078-.0173-.0693-.026-.1213-.026-.156.0347-.4853.104-.8927.208-1.222v-.416c0-.1213-.0087-.208-.026-.26 0-.052.0173-.13.052-.234.0347-.104.026-.182-.026-.234.0173-.0347.0347-.0953.052-.182.0347-.104.0867-.14733.156-.13-.0173.03467-.0433.09533-.078.182-.0347.0867-.0173.1387.052.156l-.156.416c0 .0173.0173.0347.052.052.052.0173.0693.0433.052.078l-.026.494c0 .0867.0173.2167.052.39h.026c.0173-.1387.052-.312.104-.52.0347 0 .0433.0433.026.13v.13c.0693-.1213.1127-.2687.13-.442.0173-.1907.0347-.3293.052-.416.0173-.104.0173-.1993 0-.286v-.234c0-.24267.0693-.39.208-.442 0 .08667-.0173.208-.052.364-.0347.1387-.026.234.026.286v.026c0 .0347-.026.1127-.078.234-.052.104-.0433.1733.026.208l-.052.39v.546c-.0693-.0173-.0953.0087-.078.078.0347.052.078.0693.13.052.0173-.1907.0433-.3987.078-.624.052-.2427.0693-.2513.052-.026h.026c0-.104.0087-.1993.026-.286.0173-.0867.0347-.1647.052-.234 0 .052.0347.0953.104.13l.026.52h.026v-.26c.0173-.1213.0173-.26 0-.416.0347-.0347.078-.0433.13-.026.0693 0 .104.0173.104.052.0173.0347-.0087.052-.078.052 0 .0173.0173.0433.052.078.0347.0347.052.0693.052.104.0173.156.0173.2947 0 .416v.286c0 .208.0347.3467.104.416-.0347.0693-.052.1387-.052.208 0 .1213.0433.1907.13.208v-.026c0-.052-.0087-.13-.026-.234-.0173-.1213.0087-.1733.078-.156v.078l-.026.364c0 .104.0347.182.104.234-.0347-.7973-.0693-1.4127-.104-1.846.0347 0 .0347-.0173 0-.052-.0173-.0347-.026-.0607-.026-.078 0-.0867-.0173-.1733-.052-.26-.0347-.104-.052-.1907-.052-.26 0-.08667.0347-.13.104-.13l.208 1.17c.0173.052.052.1473.104.286.0693.1213.0607.182-.026.182l.156.572h-.026c.0693.1733.104.2947.104.364-.0347 0-.0433.026-.026.078.0173.052.026.0953.026.13.052-.052.0867-.078.104-.078.0347 0 .0607.0433.078.13.0347.0867.0607.1473.078.182v.234c0 .0867.0087.1647.026.234.0173 0 .0347-.0173.052-.052.0173-.052.0433-.0693.078-.052.0347.26.0867.52.156.78h.13c.1213 0 .1907.052.208.156.0173.0173.052.0607.104.13.0693.0693.078.13.026.182.0173.0693.026.156.026.26.0173.104.078.1647.182.182.0693.0867.156.234.26.442.0173.052.026.1127.026.182.0173.052.0347.0953.052.13.0173.0347.052.0347.104 0l.208.598c0 .0693.0087.1473.026.234.0347.0867.052.1647.052.234 0 .052-.0347.078-.104.078v.182c.0173.0693.0347.1213.052.156.0173.0347.052.0347.104 0Zm-3.718-8.58c0 .03467.0087.09533.026.182s-.0173.12133-.104.104l-.052-.026c0-.01733.0087-.052.026-.104.0173-.06933.052-.12133.104-.156Zm-17.94.104c0-.052.0087-.078.026-.078s.026.026.026.078h-.052Zm17.81.988c.0173-.03467 0-.04333-.052-.026s-.0867.026-.104.026c0-.104.0173-.26.052-.468.0347-.01733.052-.06933.052-.156s.0347-.12133.104-.104l.078.26v.052c0 .052-.0087.13867-.026.26 0 .104-.0347.156-.104.156Zm-12.272 3.432c.052-.0867.104-.208.156-.364.0693-.1733.13-.3207.182-.442.0693-.1213.156-.1993.26-.234v.026c-.0693.156-.182.3813-.338.676-.1387.2947-.1993.5633-.182.806h.026c0 .052-.0087.104-.026.156-.0173.052-.0347.104-.052.156h.026l-.26.494c0 .0173.0087.0693.026.156.0173.0693.0173.1213 0 .156-.0173.0347-.0607.052-.13.052 0 .0347.0087.052.026.052.0347-.0173.052-.026.052-.026v.026c-.0173.0867-.078.1993-.182.338-.0867.1387-.1473.2513-.182.338-.0347.0867-.0173.182.052.286-.0347.0693-.052.1127-.052.13v.104c.0173.0347-.0087.0607-.078.078 0 .364-.0693.754-.208 1.17-.104.208-.156.3727-.156.494 0 .104.052.1907.156.26-.0173.1387-.0953.286-.234.442-.1387.1387-.2427.2513-.312.338-.0173.0173-.0607.0867-.13.208-.0693.104-.052.1127.052.026.0693-.0867.1647-.2167.286-.39.1387-.1907.2773-.3293.416-.416.0173.0347.026.078.026.13 0 .104-.0347.2253-.104.364-.0693.1213-.1127.208-.13.26-.7627.936-1.3433 1.6207-1.742 2.054-.0347 0-.0433-.0173-.026-.052.0173-.0347.026-.0607.026-.078-.104.104-.2947.26-.572.468-.0347.0173-.078.0433-.13.078-.052.0347-.1127.052-.182.052l.468-.39c.052-.0173.0867-.0433.104-.078.0347-.0347.0433-.0607.026-.078-.0173 0-.0433.026-.078.078-.2427 0-.416.0607-.52.182-.0867-.0347-.208-.0867-.364-.156-.1387-.052-.2513-.104-.338-.156-.052-.052-.1387-.1213-.26-.208-.1213-.0867-.208-.182-.26-.286-.0173-.1387-.0693-.2773-.156-.416-.104-.0867-.156-.1473-.156-.182l.026-.13c0-.052-.052-.1127-.156-.182-.1213-.156-.2167-.2513-.286-.286.0347-.2427.078-.4247.13-.546.052-.0867.13-.2167.234-.39.1213-.1733.1907-.338.208-.494l-.026-.13c0-.0693.0433-.234.13-.494.1213-.6067.2687-1.5167.442-2.73l.078-.676c-.5373.3467-.9013.5633-1.092.65-.052.0693-.13.1213-.234.156-.104.0173-.1733.0347-.208.052-.1907-.0347-.364-.1127-.52-.234-.1387-.1213-.3033-.2947-.494-.52-.2947-.624-.4853-1.066-.572-1.326-.0173-.052-.0693-.1473-.156-.286-.0693-.1387-.0953-.2773-.078-.416.1213-.3467.2167-.5807.286-.702.0173-.1213.104-.2773.26-.468.156-.156.4073-.3727.754-.65v-.156c0-.08667.0347-.12133.104-.104-.0173.08667-.0607.2253-.13.416-.052.1907-.0607.3467-.026.468v.052c0 .0867.026.156.078.208.0693.052.1473.0693.234.052.3293-.0867.6413-.208.936-.364.2947-.1733.676-.4247 1.144-.754l.442-.312c.0867-.17333.182-.30333.286-.39.104-.052.26-.09533.468-.13.1213.052.2513.09533.39.13.156.01733.2687.03467.338.052l.338.078.884.156c.052.01733.13.052.234.104.1213.03467.2253.03467.312 0 .0173.104.0173.234 0 .39-.0173.1387-.026.2513-.026.338 0 .2253.078.338.234.338-.0173.0867-.0867.182-.208.286l-.234.234c-.0347.052-.0173.104.052.156l-.182.364c-.2253.6413-.4333 1.2913-.624 1.95l-.182.598c-.26 1.0227-.4247 1.742-.494 2.158.2773-.26.5893-.6847.936-1.274l.312-.494c.0867-.156.1647-.2947.234-.416.0693-.1213.13-.2253.182-.312.104-.156.2427-.39.416-.702ZM67.566 9.34c0 .052-.0087.06933-.026.052-.0173-.01733-.026-.04333-.026-.078h.026l.026.026Zm.286.26c-.0173-.03467-.0087-.052.026-.052.052 0 .0693.01733.052.052h-.078Zm0 .182c-.0173-.06933-.0087-.104.026-.104.052 0 .0693.03467.052.104h-.078Zm-13.286.156c-.0347.1733-.078.2947-.13.364l-.104.13v-.104c.0347-.0347.0607-.1127.078-.234.0347-.12133.0867-.182.156-.182v.026Zm12.272.104c0 .0173-.0173.026-.052.026h-.052l-.026-.026.026-.026.026.026h.078Zm1.066.26c-.0347-.0347-.0433-.0607-.026-.078.0347-.0347.0607-.0433.078-.026.0347 0 .0433.026.026.078l-.078.026Zm-.104.13c-.052 0-.078.0173-.078.052.0173-.104.0347-.1733.052-.208.0347-.0347.0433.0173.026.156Zm-.104.104c0-.0347.0087-.052.026-.052-.0173 0-.026.0173-.026.052Zm-.572.13c.0173 0 .026.0173.026.052 0 .0347.0087.0607.026.078h-.026v.104c.0173.0347.0087.0607-.026.078v-.312Zm1.092.468c-.0173-.0347-.0087-.052.026-.052.052 0 .0693.0173.052.052h-.078Zm-.364.078c-.0347-.0173-.052 0-.052.052 0 .0347.0173.0433.052.026v-.078Zm.39.312c-.0173-.0693-.0087-.104.026-.104.052 0 .0693.0347.052.104h-.078Zm-12.922.572v-.13c0-.0867.0347-.1213.104-.104l-.078.26-.026.026v-.052Zm13.052.624h.026-.026Zm1.924 2.548c-.0173-.0693-.026-.1387-.026-.208s.0347-.0953.104-.078l.026.286h-.104Zm.572 1.274c-.0173-.052-.0087-.078.026-.078.052 0 .0693.026.052.078h-.078Zm-17.186 1.3c0-.052.0173-.0953.052-.13.0173 0 .026.0173.026.052 0 .0173-.0087.0347-.026.052l-.052.026Zm.13 1.04c0-.0173.0087-.026.026-.026s.026.0087.026.026h-.052Zm40.274-.208c.0867 0 .1473.0173.182.052.0347.0173.0347.0607 0 .13-.0173.0693-.0087.156.026.26-.0173.052-.0607.104-.13.156-.0693.0347-.1213.0607-.156.078-.0347.104-.1387.208-.312.312-.208.1907-.4247.4247-.65.702-.2253.2773-.3813.468-.468.572v.052c0 .0693-.052.1733-.156.312-.0347.0173-.1213.078-.26.182-.1213.104-.2513.156-.39.156-.104.0867-.2513.1473-.442.182-.1733.0347-.3033.0607-.39.078l-.026-.026c-.0347.0693-.0953.1127-.182.13-.0867.0347-.1907.052-.312.052-.1213.0173-.2167.0433-.286.078-.052-.0173-.13-.026-.234-.026-.104 0-.234.0087-.39.026-.156.0347-.286.0433-.39.026-.0173-.0173-.052-.026-.104-.026l-.26.026c-.728-.208-1.3953-.5633-2.002-1.066-.3293-.312-1.04-.9187-2.132-1.82l-.468-.39c-.208-.208-.4333-.4073-.676-.598-.0173.156-.0347.3553-.052.598-.0173.2253-.026.4853-.026.78v.208c.0173.0867.0173.156 0 .208h.026l-.026.234.026.234c-.1213.208-.1907.39-.208.546-.104.1907-.1993.4073-.286.65-.0693.26-.1213.442-.156.546-.104.1733-.2427.26-.416.26-.052.0347-.0953.0347-.13 0-.0173-.0347-.0087-.078.026-.13l-.338-.104-.078.39c-.104.1213-.2167.234-.338.338-.0693 0-.1213-.026-.156-.078l-.078-.078c-.0173-.0173-.052.0087-.104.078l-.26-.416c-.104-.0867-.39-.364-.858-.832-.0867-.208-.208-.39-.364-.546-.1387-.156-.3033-.312-.494-.468-.1907-.156-.3467-.2947-.468-.416-.156-.2253-.2687-.4247-.338-.598.052.0173.1127.0693.182.156.0867.0693.1647.1213.234.156.0693.052.13.052.182 0-.0347-.052-.13-.1213-.286-.208-.1387-.104-.208-.208-.208-.312.2773.1907.6673.3813 1.17.572l.286.026c.1387 0 .2253-.0433.26-.13.1213-.4853.208-.9793.26-1.482.052-.5027.0953-1.1353.13-1.898-.0173-.0347-.026-.078-.026-.13 0-.0867.0347-.1993.104-.338l.026-.624c0-.1213-.0087-.2167-.026-.286h.026c-.0347-.104-.052-.1993-.052-.286l.026-.364h.026c-.0347-.104-.052-.1993-.052-.286l.026-.364v-.052c0-.572-.0173-1.0053-.052-1.3-.0173-.052-.0433-.1473-.078-.286-.0173-.156-.078-.2687-.182-.338-.4333.1213-.9967.3293-1.69.624-.0693.0347-.182.078-.338.13-.1387.052-.2427.1213-.312.208-.2253.1387-.6673.364-1.326.676.052.0347.1387.0693.26.104.1213.0347.208.0693.26.104.0867.1387.234.182.442.13.0693.0347.1647.104.286.208.1213.0867.2253.1127.312.078.1213.0347.286.1213.494.26.0347.052.0693.1647.104.338.0347.1733.104.286.208.338.0347.0347.052.0867.052.156 0 .052-.0347.13-.104.234-.052.0867-.0867.1733-.104.26-.0693.0867-.1387.1993-.208.338-.052.1387-.104.2427-.156.312-.052.052-.1127.0607-.182.026l-.182.156c.052-.052.026-.1213-.078-.208-.0693 0-.1473.0433-.234.13-.0693.0693-.13.1213-.182.156-.052.0347-.104.026-.156-.026-.5027.312-.9447.8407-1.326 1.586-.0173.052-.0607.1733-.13.364-.0693.1733-.1127.3467-.13.52.2427-.0347.4073-.0693.494-.104.3813-.208.7627-.4593 1.144-.754.3813-.312.6067-.494.676-.546.104-.104.2253-.2427.364-.416.156-.1733.2773-.3033.364-.39.104-.0867.182-.104.234-.052-.52.7107-.8753 1.3087-1.066 1.794-.1213.0867-.234.234-.338.442-.104.208-.1907.364-.26.468-.0173.0693-.0607.156-.13.26-.0693.104-.0867.1907-.052.26-.0347.1907-.1213.39-.26.598-.1387.2253-.2427.3987-.312.52-.416.312-.754.468-1.014.468-.1733 0-.3467-.0693-.52-.208-.0867-.0867-.182-.234-.286-.442-.052-.0867-.1993-.234-.442-.442-.1213-.1733-.1907-.338-.208-.494.1907-.364.3987-.6933.624-.988.0347-.2253.078-.39.13-.494.052-.0693.1733-.104.364-.104.1387-.3813.3207-1.0313.546-1.95.0173-.1213.026-.286.026-.494 0-.2253-.0087-.39-.026-.494-.0173-.208-.104-.416-.26-.624-.1387-.2253-.2427-.39-.312-.494l-.702.364c-.0867.0347-.208.052-.364.052s-.3553-.0347-.598-.104c-.1387-.2253-.4333-.39-.884-.494-.2253-.0693-.4073-.1387-.546-.208-.1387-.0693-.2513-.182-.338-.338-.0173-.0347-.0607-.104-.13-.208-.052-.104-.0607-.1993-.026-.286-.0173-.052-.0433-.1213-.078-.208-.0347-.104-.026-.182.026-.234.1387-.0867.286-.13.442-.13l.286-.026c.208 0 .39.0347.546.104.156-.0867.2947-.1213.416-.104 2.1147-.8493 4.004-1.56 5.668-2.132.208-.0693.572-.156 1.092-.26.5027-.104.884-.1993 1.144-.286.26-.104.4073-.25133.442-.442-.0347-.052-.1127-.12133-.234-.208-.1213-.104-.2167-.182-.286-.234-.052-.06933-.0173-.09533.104-.078.364.17333.676.234.936.182.1387-.08667.26-.21667.364-.39.104-.17333.182-.29467.234-.364.1387-.29467.2253-.50267.26-.624-.0347 0-.0347-.00867 0-.026.052-.03467.0693-.06933.052-.104l-.364.052c-1.3173.32933-2.8773.97067-4.68 1.924-.0347 0-.0867.00867-.156.026-.0693.01733-.1213.026-.156.026-.0173-.01733-.0173-.052 0-.104.0867-.104.1993-.208.338-.312.156-.104.2687-.182.338-.234-.26-.13867-.6153-.38133-1.066-.728-.1733-.27733-.2253-.51133-.156-.702.0347-.03467.0607-.09533.078-.182.0347-.104.0607-.17333.078-.208.0173-.052.052-.04333.104.026.0693.01733.1647.04333.286.078.1387.03467.234.08667.286.156.104 0 .2253-.026.364-.078.156-.06933.2687-.11267.338-.13.9187-.364 1.8893-.78 2.912-1.248.2253-.22533.416-.32933.572-.312 0 .03467.0173.03467.052 0 .0347-.03467.052-.052.052-.052.156-.208.2773-.32933.364-.364.156.06933.3727.208.65.416h.39c.052-.104.0953-.22533.13-.364.052-.13867.0867-.24267.104-.312.0173-.13867.0433-.26.078-.364.0347-.104.0607-.19067.078-.26.1387-.52.1993-.90133.182-1.144l-.468.26c-.052.052-.1387.11267-.26.182-.104.052-.1907.12133-.26.208-.052.06933-.0867.14733-.104.234l-.598.416c-.676.45067-1.1527.74533-1.43.884-.364.13867-.7107.208-1.04.208-.2427 0-.52-.04333-.832-.13l-.312-.156c-.104-.052-.1993-.09533-.286-.13-.52-.208-.8927-.42467-1.118-.65-.0347-.052-.0953-.13867-.182-.26-.0693-.12133-.1213-.24267-.156-.364.0693-.27733.104-.494.104-.65-.0347-.104-.052-.182-.052-.234 0-.12133.0433-.21667.13-.286.208.052.4073.156.598.312.26-.052.5807-.12133.962-.208l.858-.26c.728-.26 1.3347-.40733 1.82-.442.312-.052.7193-.16467 1.222-.338.4853-.13867.884-.24267 1.196-.312.3293-.06933.65-.104.962-.104.416 0 .8233.08667 1.222.26l.52.286.572.572.39.468c.052.052.1387.16467.26.338.1387.156.2427.312.312.468-.1213.22533-.2427.52-.364.884-.0173.19067-.0953.416-.234.676-.1213.26-.208.468-.26.624-.052.156-.104.30333-.156.442-.0347.13867-.078.26867-.13.39-.2427.69333-.4333 1.20467-.572 1.534-.0867.17333-.13.29467-.13.364 0 .13867.0867.156.26.052.156-.12133.4247-.234.806-.338.0173-.01733.078-.06933.182-.156.1213-.104.2427-.16467.364-.182.0173.03467.0433.04333.078.026.052-.01733.0953-.026.13-.026.1387.06933.312.14733.52.234.2253.08667.3987.182.52.286.0347 0 .104.01733.208.052.104.01733.1993.00867.286-.026.572.12133 1.0227.27733 1.352.468.0693.052.1387.13.208.234.0867.104.1647.19067.234.26-.0173.03467-.0433.09533-.078.182s-.026.156.026.208c-.0173.052-.0173.1213 0 .208-.0347.2427-.078.416-.13.52-.2947.3467-.5633.624-.806.832-.0347.0173-.104.0607-.208.13-.104.052-.1993.0693-.286.052.0173-.0347-.0087-.0433-.078-.026-.052.0173-.0867.026-.104.026-.3813-.104-.806-.2773-1.274-.52l-.702-.286c-.156-.0347-.3987-.052-.728-.052-.468 0-.8493-.052-1.144-.156-1.6293.0867-2.964.2687-4.004.546 0 .0173.0173.0607.052.13.1213.0867.26.156.416.208.156.0347.26.0607.312.078.1387.0867.2687.2253.39.416 0 .104.0433.208.13.312.104.0867.1733.1473.208.182.0347.1213 0 .2773-.104.468-.0867.1907-.13.3293-.13.416l1.196-.754c.3467-.312.5807-.5027.702-.572.052-.0173.13-.026.234-.026.156 0 .3553.0347.598.104.26.0693.442.1127.546.13.0173.0173.078.052.182.104s.1993.0607.286.026l.598.546c.0347.1213.1127.234.234.338.1387.104.234.182.286.234.0347.1213.026.234-.026.338-.052.104-.13.2167-.234.338-.0867.1213-.156.234-.208.338-.2947.416-.572.728-.832.936-.0347.0347-.078.052-.13.052-.0173 0-.0433-.026-.078-.078-.0173-.0693-.078-.0953-.182-.078-.0867.052-.208.1387-.364.26-.156.1213-.2947.182-.416.182-.0867 0-.182-.026-.286-.078-.0867.0347-.208.0693-.364.104-.156.0173-.3033.052-.442.104-.1213.0347-.2167.104-.286.208.2947.156.8753.4247 1.742.806.832.312 1.664.598 2.496.858.1733.0173.364.052.572.104.208.052.3553.0867.442.104.676.1387 1.6727.2773 2.99.416l1.274.156.026-.026ZM83.53 15.71c.0693-.1213.208-.3553.416-.702.2253-.364.4073-.7107.546-1.04.0173-.0347.0347-.0867.052-.156.0347-.0693.0347-.13 0-.182-.2773.052-.6327.1647-1.066.338l-.026.442.026.078c-.0347.0693-.052.13-.052.182 0 .052.0173.1473.052.286h-.026c.0347.052.0433.1213.026.208v.182c-.104.26-.0867.3813.052.364Zm-5.382.91.026-.026-.026.026Z"/><defs><linearGradient id="a" x1="47" x2="47" y1="-6" y2="25" gradientUnits="userSpaceOnUse"><stop stop-color="#fff"/><stop offset="1" stop-color="#FFF9E5"/></linearGradient></defs></svg>